<svg width="21" height="11" viewBox="0 0 21 11" fill="none" xmlns="http://www.w3.org/2000/svg">
<path d="M19.7259 1.28876C19.5981 1.15988 19.446 1.05759 19.2784 0.987781C19.1109 0.917974 18.9311 0.882034 18.7496 0.882034C18.5681 0.882034 18.3884 0.917974 18.2208 0.987781C18.0533 1.05759 17.9012 1.15988 17.7734 1.28876L11.4759 7.58624C11.3481 7.71512 11.196 7.81741 11.0284 7.88722C10.8609 7.95702 10.6811 7.99296 10.4996 7.99296C10.3181 7.99296 10.1384 7.95702 9.97083 7.88722C9.80328 7.81741 9.6512 7.71512 9.52338 7.58624L3.22588 1.28876C3.09805 1.15988 2.94597 1.05759 2.77842 0.987781C2.61086 0.917974 2.43114 0.882034 2.24962 0.882034C2.06811 0.882034 1.88839 0.917974 1.72083 0.987781C1.55328 1.05759 1.4012 1.15988 1.27337 1.28876C1.01728 1.54638 0.873535 1.89487 0.873535 2.25813C0.873535 2.62138 1.01728 2.96988 1.27337 3.2275L7.58463 9.53874C8.35807 10.3112 9.4065 10.7451 10.4996 10.7451C11.5928 10.7451 12.6412 10.3112 13.4146 9.53874L19.7259 3.2275C19.982 2.96988 20.1257 2.62138 20.1257 2.25813C20.1257 1.89487 19.982 1.54638 19.7259 1.28876Z" fill="white"/>
</svg>
