<svg width="1440" height="4996" viewBox="0 0 1440 4996" fill="none" xmlns="http://www.w3.org/2000/svg">
<circle cx="116" cy="6" r="6" fill="#5D939E"/>
<circle cx="172" cy="136" r="6" fill="#5D939E"/>
<circle cx="286" cy="445" r="6" fill="#5D939E"/>
<circle cx="996" cy="433" r="6" fill="#5D939E"/>
<circle cx="264" cy="678" r="6" fill="#5D939E"/>
<circle cx="1402" cy="266" r="6" fill="#5D939E"/>
<circle cx="1250" cy="212" r="10" fill="#5D939E" fill-opacity="0.4"/>
<circle cx="1250" cy="212" r="6" fill="#52B3C9" fill-opacity="0.4"/>
<circle cx="617" cy="31" r="10" fill="#5D939E" fill-opacity="0.4"/>
<circle cx="617" cy="31" r="6" fill="#52B3C9" fill-opacity="0.4"/>
<circle cx="54" cy="522" r="10" fill="#5D939E" fill-opacity="0.4"/>
<circle cx="54" cy="522" r="6" fill="#52B3C9" fill-opacity="0.4"/>
<circle cx="468" cy="300" r="10" fill="#5D939E" fill-opacity="0.4"/>
<circle cx="468" cy="300" r="6" fill="#52B3C9" fill-opacity="0.4"/>
<circle cx="241.5" cy="41.5" r="2.5" fill="#5D939E"/>
<circle cx="443.5" cy="605.5" r="2.5" fill="#5D939E"/>
<circle cx="443.5" cy="605.5" r="2.5" fill="#5D939E"/>
<circle cx="397.5" cy="547.5" r="2.5" fill="#5D939E"/>
<circle cx="717.5" cy="312.5" r="2.5" fill="#5D939E"/>
<circle cx="863.5" cy="735.5" r="2.5" fill="#5D939E"/>
<circle cx="775.5" cy="36.5" r="2.5" fill="#5D939E"/>
<circle cx="614.5" cy="496.5" r="2.5" fill="#5D939E"/>
<circle cx="928.5" cy="578.5" r="2.5" fill="#5D939E"/>
<circle cx="1184.5" cy="408.5" r="2.5" fill="#5D939E"/>
<circle cx="1066.5" cy="583.5" r="2.5" fill="#5D939E"/>
<circle cx="795.5" cy="825.5" r="2.5" fill="#5D939E"/>
<circle cx="257.5" cy="786.5" r="2.5" fill="#5D939E"/>
<circle cx="257.5" cy="786.5" r="2.5" fill="#5D939E"/>
<circle cx="846.5" cy="307.5" r="2.5" fill="#5D939E"/>
<circle cx="1301.5" cy="34.5" r="2.5" fill="#5D939E"/>
<circle cx="94.5" cy="201.5" r="2.5" fill="#5D939E"/>
<circle cx="78.5" cy="735.5" r="2.5" fill="#5D939E"/>
<path d="M604.229 777.009C604.704 775.885 606.296 775.885 606.771 777.009L608.697 781.569C608.837 781.9 609.1 782.163 609.431 782.303L613.991 784.229C615.115 784.704 615.115 786.296 613.991 786.771L609.431 788.697C609.1 788.837 608.837 789.1 608.697 789.431L606.771 793.991C606.296 795.115 604.704 795.115 604.229 793.991L602.303 789.431C602.163 789.1 601.9 788.837 601.569 788.697L597.009 786.771C595.885 786.296 595.885 784.704 597.009 784.229L601.569 782.303C601.9 782.163 602.163 781.9 602.303 781.569L604.229 777.009Z" fill="#57A3C5"/>
<path d="M1026.23 122.009C1026.7 120.885 1028.3 120.885 1028.77 122.009L1030.7 126.569C1030.84 126.9 1031.1 127.163 1031.43 127.303L1035.99 129.229C1037.11 129.704 1037.11 131.296 1035.99 131.771L1031.43 133.697C1031.1 133.837 1030.84 134.1 1030.7 134.431L1028.77 138.991C1028.3 140.115 1026.7 140.115 1026.23 138.991L1024.3 134.431C1024.16 134.1 1023.9 133.837 1023.57 133.697L1019.01 131.771C1017.89 131.296 1017.89 129.704 1019.01 129.229L1023.57 127.303C1023.9 127.163 1024.16 126.9 1024.3 126.569L1026.23 122.009Z" fill="#57A3C5"/>
<path d="M836.229 525.009C836.704 523.885 838.296 523.885 838.771 525.009L840.697 529.569C840.837 529.9 841.1 530.163 841.431 530.303L845.991 532.229C847.115 532.704 847.115 534.296 845.991 534.771L841.431 536.697C841.1 536.837 840.837 537.1 840.697 537.431L838.771 541.991C838.296 543.115 836.704 543.115 836.229 541.991L834.303 537.431C834.163 537.1 833.9 536.837 833.569 536.697L829.009 534.771C827.885 534.296 827.885 532.704 829.009 532.229L833.569 530.303C833.9 530.163 834.163 529.9 834.303 529.569L836.229 525.009Z" fill="#57A3C5"/>
<path d="M472.229 139.009C472.704 137.885 474.296 137.885 474.771 139.009L476.697 143.569C476.837 143.9 477.1 144.163 477.431 144.303L481.991 146.229C483.115 146.704 483.115 148.296 481.991 148.771L477.431 150.697C477.1 150.837 476.837 151.1 476.697 151.431L474.771 155.991C474.296 157.115 472.704 157.115 472.229 155.991L470.303 151.431C470.163 151.1 469.9 150.837 469.569 150.697L465.009 148.771C463.885 148.296 463.885 146.704 465.009 146.229L469.569 144.303C469.9 144.163 470.163 143.9 470.303 143.569L472.229 139.009Z" fill="#57A3C5"/>
<path d="M1160.23 40.0092C1160.7 38.8852 1162.3 38.8852 1162.77 40.0092L1164.7 44.5685C1164.84 44.8995 1165.1 45.1629 1165.43 45.3027L1169.99 47.2288C1171.11 47.7036 1171.11 49.2964 1169.99 49.7712L1165.43 51.6973C1165.1 51.8371 1164.84 52.1005 1164.7 52.4315L1162.77 56.9908C1162.3 58.1148 1160.7 58.1148 1160.23 56.9908L1158.3 52.4315C1158.16 52.1005 1157.9 51.8371 1157.57 51.6973L1153.01 49.7712C1151.89 49.2964 1151.89 47.7036 1153.01 47.2288L1157.57 45.3027C1157.9 45.1629 1158.16 44.8995 1158.3 44.5685L1160.23 40.0092Z" fill="#57A3C5"/>
<path d="M104.661 810.646C104.783 809.432 106.305 808.962 107.09 809.896L110.277 813.683C110.508 813.958 110.838 814.132 111.195 814.167L116.12 814.661C117.334 814.783 117.804 816.305 116.871 817.09L113.084 820.277C112.809 820.508 112.635 820.837 112.599 821.195L112.105 826.12C111.983 827.334 110.462 827.804 109.676 826.871L106.489 823.083C106.258 822.808 105.929 822.635 105.571 822.599L100.646 822.105C99.4324 821.983 98.962 820.461 99.8957 819.676L103.683 816.489C103.958 816.258 104.132 815.929 104.167 815.571L104.661 810.646Z" fill="#57A3C5"/>
<rect y="889" width="1440" height="3866" fill="#110726"/>
<path d="M374.161 2322.91C308.24 2240.93 187.915 2216.25 105.164 2305.28C8.90063 2408.84 167.988 2560.97 37.5756 2615.6L-186.981 2709.66C-230.955 2728.08 -263.642 2766.19 -275.144 2812.46C-297.602 2902.8 -233.734 2991.73 -140.958 2999.31L-128.479 3000.33C-84.1965 3003.95 -40.3147 2989.4 -8.00351 2958.9C182.581 2779.02 478.987 2453.26 374.161 2322.91Z" fill="url(#paint0_linear_760_835)" fill-opacity="0.5"/>
<path d="M469 1249C435.782 990.633 62.6197 1049.75 -39.1896 1106L-143.273 1839.08C125.139 2135.38 344.039 1842.67 252 1642C200.684 1530.12 471.938 1376.68 469 1249Z" fill="url(#paint1_linear_760_835)"/>
<path d="M632.5 2008C512.9 1833.2 354 1878.5 333.499 2031C339.5 2135 426 2095 482.999 2202C517.499 2386 483.5 2343 426 2616C368.5 2889 597 2781 640 2755C683 2729 781.999 2226.5 632.5 2008Z" fill="url(#paint2_linear_760_835)"/>
<path d="M445.767 2991.02C103.069 2994.56 -15.3104 3447.38 -31 3696.45V4261.22C-31 4682.74 310.708 5024.45 732.226 5024.45H1208.45C1344.44 5024.45 1456.93 4918.59 1465.18 4782.84C1468.93 4721 1450.67 4659.69 1410.64 4612.4C1204.66 4369.13 790.995 3972.72 488.5 3902.45C139.901 3821.48 189 3332.95 331.5 3180.45C393.545 3114.05 444.235 3093.07 483.973 3093.89C537.859 3095.01 557.144 3210.91 506.505 3192.46C487.01 3185.36 483.618 3159.88 463.124 3156.65C437.921 3152.68 423.392 3177.59 419.276 3202.77C416.158 3221.85 419.74 3236.56 427.489 3247.78C467.607 3305.86 562.445 3260.54 599.942 3200.74C623.596 3163.01 629.055 3128.73 624.262 3099.34C611.86 3023.3 522.806 2990.22 445.767 2991.02Z" fill="url(#paint3_linear_760_835)"/>
<path d="M445.767 2991.02C103.069 2994.56 -15.3104 3447.38 -31 3696.45V4261.22C-31 4682.74 310.708 5024.45 732.226 5024.45H1208.45C1344.44 5024.45 1456.93 4918.59 1465.18 4782.84C1468.93 4721 1450.67 4659.69 1410.64 4612.4C1204.66 4369.13 790.995 3972.72 488.5 3902.45C139.901 3821.48 189 3332.95 331.5 3180.45C393.545 3114.05 444.235 3093.07 483.973 3093.89C537.859 3095.01 557.144 3210.91 506.505 3192.46C487.01 3185.36 483.618 3159.88 463.124 3156.65C437.921 3152.68 423.392 3177.59 419.276 3202.77C416.158 3221.85 419.74 3236.56 427.489 3247.78C467.607 3305.86 562.445 3260.54 599.942 3200.74C623.596 3163.01 629.055 3128.73 624.262 3099.34C611.86 3023.3 522.806 2990.22 445.767 2991.02Z" fill="url(#paint4_linear_760_835)"/>
<path d="M792.182 1306.66C1061.5 961.289 1530 1120.79 1602.18 1268.66L1653.53 4679.33C1653.72 4682.68 1653.77 4685.96 1653.68 4689.17L1653.53 4679.33C1642.21 4476.05 1130.17 4020.08 1007.68 3923.67C914.472 3850.3 544.182 3418.16 867.182 3022.66C1125.58 2706.26 1023.52 2335.16 940.182 2189.16C586.182 1651.56 756.683 1391.16 792.182 1306.66Z" fill="url(#paint5_linear_760_835)"/>
<path d="M752.182 1465.66C1021.5 1120.29 1490 1279.79 1562.18 1427.66L1613.53 4838.33C1613.72 4841.68 1613.77 4844.96 1613.68 4848.17L1613.53 4838.33C1602.21 4635.05 1090.17 4179.08 967.682 4082.67C874.472 4009.3 504.182 3577.16 827.182 3181.66C1085.58 2865.26 983.516 2494.16 900.182 2348.16C546.182 1810.56 716.683 1550.16 752.182 1465.66Z" fill="url(#paint6_linear_760_835)" fill-opacity="0.5"/>
<path d="M333.733 4194.85C-38.8159 4505.23 100.511 5066.51 100.511 5089L436.715 5069.51C436.715 5027.19 441.301 4927.26 459.647 4866.09C482.58 4789.62 514.6 4513.72 459.647 4516.72C415.686 4519.12 426.042 4454.08 436.715 4421.26C517.196 4194.85 408.59 4154.36 333.733 4194.85Z" fill="url(#paint7_linear_760_835)"/>
<path d="M1351.52 5176.91C1331.23 4757.81 1151.1 4616.39 1010.52 4584.56C999.261 4582.01 993.666 4601.92 1002.89 4608.86C1133.31 4707.07 1247.57 4981.8 1229.68 5176.37C1229.13 5182.34 1233.78 5187.51 1239.77 5187.51H1341.58C1347.26 5187.51 1351.8 5182.59 1351.52 5176.91Z" fill="url(#paint8_linear_760_835)"/>
<g filter="url(#filter0_f_760_835)">
<ellipse cx="2424.5" cy="3069.5" rx="1237.5" ry="1338.5" fill="#3A55B3" fill-opacity="0.23"/>
</g>
<g filter="url(#filter1_f_760_835)">
<circle cx="162.69" cy="3006.69" r="23.6897" fill="#D62CB0" fill-opacity="0.24"/>
</g>
<circle cx="162.689" cy="3005.83" r="8.27712" fill="#F254CF"/>
<g filter="url(#filter2_f_760_835)">
<circle cx="183.69" cy="1789.69" r="23.6897" fill="#D62CB0" fill-opacity="0.24"/>
</g>
<circle cx="183.689" cy="1788.83" r="8.27712" fill="#F254CF"/>
<g filter="url(#filter3_f_760_835)">
<circle cx="1120.69" cy="4012.69" r="23.6897" fill="#54F2CC" fill-opacity="0.2"/>
</g>
<circle cx="1120.69" cy="4011.83" r="8.27712" fill="#54F2CC" fill-opacity="0.2"/>
<circle cx="110" cy="985" r="6" fill="#5D939E" fill-opacity="0.2"/>
<circle cx="166" cy="1099" r="6" fill="#5D939E" fill-opacity="0.2"/>
<circle cx="280" cy="1409" r="6" fill="#5D939E" fill-opacity="0.2"/>
<circle cx="990" cy="1397" r="6" fill="#5D939E" fill-opacity="0.2"/>
<circle cx="258" cy="1642" r="6" fill="#5D939E" fill-opacity="0.2"/>
<circle cx="1396" cy="1246" r="6" fill="#5D939E" fill-opacity="0.2"/>
<circle cx="1244" cy="1175" r="10" fill="#5D939E" fill-opacity="0.2"/>
<circle cx="1244" cy="1175" r="6" fill="#52B3C9" fill-opacity="0.2"/>
<circle cx="48" cy="1486" r="10" fill="#5D939E" fill-opacity="0.2"/>
<circle cx="48" cy="1486" r="6" fill="#52B3C9" fill-opacity="0.2"/>
<circle cx="462" cy="1280" r="10" fill="#5D939E" fill-opacity="0.2"/>
<circle cx="462" cy="1280" r="6" fill="#52B3C9" fill-opacity="0.2"/>
<circle cx="235.5" cy="1020.5" r="2.5" fill="#5D939E" fill-opacity="0.2"/>
<circle cx="437.5" cy="1585.5" r="2.5" fill="#5D939E" fill-opacity="0.2"/>
<circle cx="437.5" cy="1585.5" r="2.5" fill="#5D939E" fill-opacity="0.2"/>
<circle cx="391.5" cy="1511.5" r="2.5" fill="#5D939E" fill-opacity="0.2"/>
<circle cx="711.5" cy="1292.5" r="2.5" fill="#5D939E" fill-opacity="0.2"/>
<circle cx="857.5" cy="1699.5" r="2.5" fill="#5D939E" fill-opacity="0.2"/>
<circle cx="769.5" cy="1015.5" r="2.5" fill="#5D939E" fill-opacity="0.2"/>
<circle cx="608.5" cy="1460.5" r="2.5" fill="#5D939E" fill-opacity="0.2"/>
<circle cx="922.5" cy="1558.5" r="2.5" fill="#5D939E" fill-opacity="0.2"/>
<circle cx="1178.5" cy="1372.5" r="2.5" fill="#5D939E" fill-opacity="0.2"/>
<circle cx="1060.5" cy="1563.5" r="2.5" fill="#5D939E" fill-opacity="0.2"/>
<circle cx="789.5" cy="1789.5" r="2.5" fill="#5D939E" fill-opacity="0.2"/>
<circle cx="251.5" cy="1750.5" r="2.5" fill="#5D939E" fill-opacity="0.2"/>
<circle cx="251.5" cy="1750.5" r="2.5" fill="#5D939E" fill-opacity="0.2"/>
<circle cx="840.5" cy="1287.5" r="2.5" fill="#5D939E" fill-opacity="0.2"/>
<circle cx="1295.5" cy="1013.5" r="2.5" fill="#5D939E" fill-opacity="0.2"/>
<circle cx="88.5" cy="1164.5" r="2.5" fill="#5D939E" fill-opacity="0.2"/>
<circle cx="72.5" cy="1699.5" r="2.5" fill="#5D939E" fill-opacity="0.2"/>
<path d="M598.229 1741.01C598.704 1739.89 600.296 1739.89 600.771 1741.01L602.697 1745.57C602.837 1745.9 603.1 1746.16 603.431 1746.3L607.991 1748.23C609.115 1748.7 609.115 1750.3 607.991 1750.77L603.431 1752.7C603.1 1752.84 602.837 1753.1 602.697 1753.43L600.771 1757.99C600.296 1759.11 598.704 1759.11 598.229 1757.99L596.303 1753.43C596.163 1753.1 595.9 1752.84 595.569 1752.7L591.009 1750.77C589.885 1750.3 589.885 1748.7 591.009 1748.23L595.569 1746.3C595.9 1746.16 596.163 1745.9 596.303 1745.57L598.229 1741.01Z" fill="#57A3C5" fill-opacity="0.2"/>
<path d="M1020.23 1085.01C1020.7 1083.89 1022.3 1083.89 1022.77 1085.01L1024.7 1089.57C1024.84 1089.9 1025.1 1090.16 1025.43 1090.3L1029.99 1092.23C1031.11 1092.7 1031.11 1094.3 1029.99 1094.77L1025.43 1096.7C1025.1 1096.84 1024.84 1097.1 1024.7 1097.43L1022.77 1101.99C1022.3 1103.11 1020.7 1103.11 1020.23 1101.99L1018.3 1097.43C1018.16 1097.1 1017.9 1096.84 1017.57 1096.7L1013.01 1094.77C1011.89 1094.3 1011.89 1092.7 1013.01 1092.23L1017.57 1090.3C1017.9 1090.16 1018.16 1089.9 1018.3 1089.57L1020.23 1085.01Z" fill="#57A3C5" fill-opacity="0.2"/>
<path d="M830.229 1489.01C830.704 1487.89 832.296 1487.89 832.771 1489.01L834.697 1493.57C834.837 1493.9 835.1 1494.16 835.431 1494.3L839.991 1496.23C841.115 1496.7 841.115 1498.3 839.991 1498.77L835.431 1500.7C835.1 1500.84 834.837 1501.1 834.697 1501.43L832.771 1505.99C832.296 1507.11 830.704 1507.11 830.229 1505.99L828.303 1501.43C828.163 1501.1 827.9 1500.84 827.569 1500.7L823.009 1498.77C821.885 1498.3 821.885 1496.7 823.009 1496.23L827.569 1494.3C827.9 1494.16 828.163 1493.9 828.303 1493.57L830.229 1489.01Z" fill="#57A3C5" fill-opacity="0.2"/>
<path d="M512.229 1062.01C512.704 1060.89 514.296 1060.89 514.771 1062.01L516.697 1066.57C516.837 1066.9 517.1 1067.16 517.431 1067.3L521.991 1069.23C523.115 1069.7 523.115 1071.3 521.991 1071.77L517.431 1073.7C517.1 1073.84 516.837 1074.1 516.697 1074.43L514.771 1078.99C514.296 1080.11 512.704 1080.11 512.229 1078.99L510.303 1074.43C510.163 1074.1 509.9 1073.84 509.569 1073.7L505.009 1071.77C503.885 1071.3 503.885 1069.7 505.009 1069.23L509.569 1067.3C509.9 1067.16 510.163 1066.9 510.303 1066.57L512.229 1062.01Z" fill="#57A3C5" fill-opacity="0.2"/>
<path d="M1154.23 1019.01C1154.7 1017.89 1156.3 1017.89 1156.77 1019.01L1158.7 1023.57C1158.84 1023.9 1159.1 1024.16 1159.43 1024.3L1163.99 1026.23C1165.11 1026.7 1165.11 1028.3 1163.99 1028.77L1159.43 1030.7C1159.1 1030.84 1158.84 1031.1 1158.7 1031.43L1156.77 1035.99C1156.3 1037.11 1154.7 1037.11 1154.23 1035.99L1152.3 1031.43C1152.16 1031.1 1151.9 1030.84 1151.57 1030.7L1147.01 1028.77C1145.89 1028.3 1145.89 1026.7 1147.01 1026.23L1151.57 1024.3C1151.9 1024.16 1152.16 1023.9 1152.3 1023.57L1154.23 1019.01Z" fill="#57A3C5" fill-opacity="0.2"/>
<path d="M98.6612 1774.65C98.783 1773.43 100.305 1772.96 101.09 1773.9L104.277 1777.68C104.508 1777.96 104.838 1778.13 105.195 1778.17L110.12 1778.66C111.334 1778.78 111.804 1780.3 110.871 1781.09L107.084 1784.28C106.809 1784.51 106.635 1784.84 106.599 1785.2L106.105 1790.12C105.983 1791.33 104.462 1791.8 103.676 1790.87L100.489 1787.08C100.258 1786.81 99.9287 1786.63 99.5712 1786.6L94.6465 1786.1C93.4324 1785.98 92.962 1784.46 93.8957 1783.68L97.6828 1780.49C97.9578 1780.26 98.1316 1779.93 98.1675 1779.57L98.6612 1774.65Z" fill="#57A3C5" fill-opacity="0.2"/>
<circle cx="120" cy="1905" r="6" fill="#5D939E" fill-opacity="0.2"/>
<circle cx="176" cy="2019" r="6" fill="#5D939E" fill-opacity="0.2"/>
<circle cx="290" cy="2328" r="6" fill="#5D939E" fill-opacity="0.2"/>
<circle cx="1000" cy="2316" r="6" fill="#5D939E" fill-opacity="0.2"/>
<circle cx="268" cy="2561" r="6" fill="#5D939E" fill-opacity="0.2"/>
<circle cx="1406" cy="2165" r="6" fill="#5D939E" fill-opacity="0.2"/>
<circle cx="1254" cy="2095" r="10" fill="#5D939E" fill-opacity="0.2"/>
<circle cx="1254" cy="2095" r="6" fill="#52B3C9" fill-opacity="0.2"/>
<circle cx="58" cy="2421" r="10" fill="#5D939E" fill-opacity="0.2"/>
<circle cx="58" cy="2421" r="6" fill="#52B3C9" fill-opacity="0.2"/>
<circle cx="472" cy="2199" r="10" fill="#5D939E" fill-opacity="0.2"/>
<circle cx="472" cy="2199" r="6" fill="#52B3C9" fill-opacity="0.2"/>
<circle cx="245.5" cy="1940.5" r="2.5" fill="#5D939E" fill-opacity="0.2"/>
<circle cx="447.5" cy="2504.5" r="2.5" fill="#5D939E" fill-opacity="0.2"/>
<circle cx="447.5" cy="2504.5" r="2.5" fill="#5D939E" fill-opacity="0.2"/>
<circle cx="401.5" cy="2446.5" r="2.5" fill="#5D939E" fill-opacity="0.2"/>
<circle cx="721.5" cy="2211.5" r="2.5" fill="#5D939E" fill-opacity="0.2"/>
<circle cx="867.5" cy="2618.5" r="2.5" fill="#5D939E" fill-opacity="0.2"/>
<circle cx="779.5" cy="1935.5" r="2.5" fill="#5D939E" fill-opacity="0.2"/>
<circle cx="618.5" cy="2379.5" r="2.5" fill="#5D939E" fill-opacity="0.2"/>
<circle cx="932.5" cy="2477.5" r="2.5" fill="#5D939E" fill-opacity="0.2"/>
<circle cx="1188.5" cy="2291.5" r="2.5" fill="#5D939E" fill-opacity="0.2"/>
<circle cx="1070.5" cy="2482.5" r="2.5" fill="#5D939E" fill-opacity="0.2"/>
<circle cx="799.5" cy="2723.5" r="2.5" fill="#5D939E" fill-opacity="0.2"/>
<circle cx="261.5" cy="2669.5" r="2.5" fill="#5D939E" fill-opacity="0.2"/>
<circle cx="261.5" cy="2669.5" r="2.5" fill="#5D939E" fill-opacity="0.2"/>
<circle cx="850.5" cy="2206.5" r="2.5" fill="#5D939E" fill-opacity="0.2"/>
<circle cx="1305.5" cy="1933.5" r="2.5" fill="#5D939E" fill-opacity="0.2"/>
<circle cx="98.5" cy="2084.5" r="2.5" fill="#5D939E" fill-opacity="0.2"/>
<circle cx="82.5" cy="2618.5" r="2.5" fill="#5D939E" fill-opacity="0.2"/>
<path d="M608.229 2660.01C608.704 2658.89 610.296 2658.89 610.771 2660.01L612.697 2664.57C612.837 2664.9 613.1 2665.16 613.431 2665.3L617.991 2667.23C619.115 2667.7 619.115 2669.3 617.991 2669.77L613.431 2671.7C613.1 2671.84 612.837 2672.1 612.697 2672.43L610.771 2676.99C610.296 2678.11 608.704 2678.11 608.229 2676.99L606.303 2672.43C606.163 2672.1 605.9 2671.84 605.569 2671.7L601.009 2669.77C599.885 2669.3 599.885 2667.7 601.009 2667.23L605.569 2665.3C605.9 2665.16 606.163 2664.9 606.303 2664.57L608.229 2660.01Z" fill="#57A3C5" fill-opacity="0.2"/>
<path d="M1030.23 2005.01C1030.7 2003.89 1032.3 2003.89 1032.77 2005.01L1034.7 2009.57C1034.84 2009.9 1035.1 2010.16 1035.43 2010.3L1039.99 2012.23C1041.11 2012.7 1041.11 2014.3 1039.99 2014.77L1035.43 2016.7C1035.1 2016.84 1034.84 2017.1 1034.7 2017.43L1032.77 2021.99C1032.3 2023.11 1030.7 2023.11 1030.23 2021.99L1028.3 2017.43C1028.16 2017.1 1027.9 2016.84 1027.57 2016.7L1023.01 2014.77C1021.89 2014.3 1021.89 2012.7 1023.01 2012.23L1027.57 2010.3C1027.9 2010.16 1028.16 2009.9 1028.3 2009.57L1030.23 2005.01Z" fill="#57A3C5" fill-opacity="0.2"/>
<path d="M840.229 2424.01C840.704 2422.89 842.296 2422.89 842.771 2424.01L844.697 2428.57C844.837 2428.9 845.1 2429.16 845.431 2429.3L849.991 2431.23C851.115 2431.7 851.115 2433.3 849.991 2433.77L845.431 2435.7C845.1 2435.84 844.837 2436.1 844.697 2436.43L842.771 2440.99C842.296 2442.11 840.704 2442.11 840.229 2440.99L838.303 2436.43C838.163 2436.1 837.9 2435.84 837.569 2435.7L833.009 2433.77C831.885 2433.3 831.885 2431.7 833.009 2431.23L837.569 2429.3C837.9 2429.16 838.163 2428.9 838.303 2428.57L840.229 2424.01Z" fill="#57A3C5" fill-opacity="0.2"/>
<path d="M522.229 1982.01C522.704 1980.89 524.296 1980.89 524.771 1982.01L526.697 1986.57C526.837 1986.9 527.1 1987.16 527.431 1987.3L531.991 1989.23C533.115 1989.7 533.115 1991.3 531.991 1991.77L527.431 1993.7C527.1 1993.84 526.837 1994.1 526.697 1994.43L524.771 1998.99C524.296 2000.11 522.704 2000.11 522.229 1998.99L520.303 1994.43C520.163 1994.1 519.9 1993.84 519.569 1993.7L515.009 1991.77C513.885 1991.3 513.885 1989.7 515.009 1989.23L519.569 1987.3C519.9 1987.16 520.163 1986.9 520.303 1986.57L522.229 1982.01Z" fill="#57A3C5" fill-opacity="0.2"/>
<path d="M1164.23 1939.01C1164.7 1937.89 1166.3 1937.89 1166.77 1939.01L1168.7 1943.57C1168.84 1943.9 1169.1 1944.16 1169.43 1944.3L1173.99 1946.23C1175.11 1946.7 1175.11 1948.3 1173.99 1948.77L1169.43 1950.7C1169.1 1950.84 1168.84 1951.1 1168.7 1951.43L1166.77 1955.99C1166.3 1957.11 1164.7 1957.11 1164.23 1955.99L1162.3 1951.43C1162.16 1951.1 1161.9 1950.84 1161.57 1950.7L1157.01 1948.77C1155.89 1948.3 1155.89 1946.7 1157.01 1946.23L1161.57 1944.3C1161.9 1944.16 1162.16 1943.9 1162.3 1943.57L1164.23 1939.01Z" fill="#57A3C5" fill-opacity="0.2"/>
<path d="M108.661 2708.65C108.783 2707.43 110.305 2706.96 111.09 2707.9L114.277 2711.68C114.508 2711.96 114.838 2712.13 115.195 2712.17L120.12 2712.66C121.334 2712.78 121.804 2714.3 120.871 2715.09L117.084 2718.28C116.809 2718.51 116.635 2718.84 116.599 2719.2L116.105 2724.12C115.983 2725.33 114.462 2725.8 113.676 2724.87L110.489 2721.08C110.258 2720.81 109.929 2720.63 109.571 2720.6L104.646 2720.1C103.432 2719.98 102.962 2718.46 103.896 2717.68L107.683 2714.49C107.958 2714.26 108.132 2713.93 108.167 2713.57L108.661 2708.65Z" fill="#57A3C5" fill-opacity="0.2"/>
<circle cx="6" cy="6" r="6" transform="matrix(-1 0 0 1 1350 2741)" fill="#5D939E" fill-opacity="0.2"/>
<circle cx="6" cy="6" r="6" transform="matrix(-1 0 0 1 1294 2855)" fill="#5D939E" fill-opacity="0.2"/>
<circle cx="6" cy="6" r="6" transform="matrix(-1 0 0 1 1180 3164)" fill="#5D939E" fill-opacity="0.2"/>
<circle cx="6" cy="6" r="6" transform="matrix(-1 0 0 1 470 3152)" fill="#5D939E" fill-opacity="0.2"/>
<circle cx="6" cy="6" r="6" transform="matrix(-1 0 0 1 1202 3397)" fill="#5D939E" fill-opacity="0.2"/>
<circle cx="6" cy="6" r="6" transform="matrix(-1 0 0 1 64 3001)" fill="#5D939E" fill-opacity="0.2"/>
<circle cx="10" cy="10" r="10" transform="matrix(-1 0 0 1 220 2927)" fill="#5D939E" fill-opacity="0.2"/>
<circle cx="6" cy="6" r="6" transform="matrix(-1 0 0 1 216 2931)" fill="#52B3C9" fill-opacity="0.2"/>
<circle cx="10" cy="10" r="10" transform="matrix(-1 0 0 1 1416 3237)" fill="#5D939E" fill-opacity="0.2"/>
<circle cx="6" cy="6" r="6" transform="matrix(-1 0 0 1 1412 3241)" fill="#52B3C9" fill-opacity="0.2"/>
<circle cx="10" cy="10" r="10" transform="matrix(-1 0 0 1 1002 3031)" fill="#5D939E" fill-opacity="0.2"/>
<circle cx="6" cy="6" r="6" transform="matrix(-1 0 0 1 998 3035)" fill="#52B3C9" fill-opacity="0.2"/>
<circle cx="2.5" cy="2.5" r="2.5" transform="matrix(-1 0 0 1 1221 2780)" fill="#5D939E" fill-opacity="0.2"/>
<circle cx="2.5" cy="2.5" r="2.5" transform="matrix(-1 0 0 1 1019 3344)" fill="#5D939E" fill-opacity="0.2"/>
<circle cx="2.5" cy="2.5" r="2.5" transform="matrix(-1 0 0 1 1019 3344)" fill="#5D939E" fill-opacity="0.2"/>
<circle cx="2.5" cy="2.5" r="2.5" transform="matrix(-1 0 0 1 1065 3286)" fill="#5D939E" fill-opacity="0.2"/>
<circle cx="2.5" cy="2.5" r="2.5" transform="matrix(-1 0 0 1 745 3051)" fill="#5D939E" fill-opacity="0.2"/>
<circle cx="2.5" cy="2.5" r="2.5" transform="matrix(-1 0 0 1 599 3458)" fill="#5D939E" fill-opacity="0.2"/>
<circle cx="2.5" cy="2.5" r="2.5" transform="matrix(-1 0 0 1 687 2775)" fill="#5D939E" fill-opacity="0.2"/>
<circle cx="2.5" cy="2.5" r="2.5" transform="matrix(-1 0 0 1 848 3219)" fill="#5D939E" fill-opacity="0.2"/>
<circle cx="2.5" cy="2.5" r="2.5" transform="matrix(-1 0 0 1 534 3317)" fill="#5D939E" fill-opacity="0.2"/>
<circle cx="2.5" cy="2.5" r="2.5" transform="matrix(-1 0 0 1 278 3131)" fill="#5D939E" fill-opacity="0.2"/>
<circle cx="2.5" cy="2.5" r="2.5" transform="matrix(-1 0 0 1 396 3322)" fill="#5D939E" fill-opacity="0.2"/>
<circle cx="2.5" cy="2.5" r="2.5" transform="matrix(-1 0 0 1 667 3564)" fill="#5D939E" fill-opacity="0.2"/>
<circle cx="2.5" cy="2.5" r="2.5" transform="matrix(-1 0 0 1 1205 3509)" fill="#5D939E" fill-opacity="0.2"/>
<circle cx="2.5" cy="2.5" r="2.5" transform="matrix(-1 0 0 1 1205 3509)" fill="#5D939E" fill-opacity="0.2"/>
<circle cx="2.5" cy="2.5" r="2.5" transform="matrix(-1 0 0 1 616 3046)" fill="#5D939E" fill-opacity="0.2"/>
<circle cx="2.5" cy="2.5" r="2.5" transform="matrix(-1 0 0 1 161 2773)" fill="#5D939E" fill-opacity="0.2"/>
<circle cx="2.5" cy="2.5" r="2.5" transform="matrix(-1 0 0 1 1368 2924)" fill="#5D939E" fill-opacity="0.2"/>
<circle cx="2.5" cy="2.5" r="2.5" transform="matrix(-1 0 0 1 1384 3458)" fill="#5D939E" fill-opacity="0.2"/>
<path d="M855.771 3502.01C855.296 3500.89 853.704 3500.89 853.229 3502.01L851.303 3506.57C851.163 3506.9 850.9 3507.16 850.569 3507.3L846.009 3509.23C844.885 3509.7 844.885 3511.3 846.009 3511.77L850.569 3513.7C850.9 3513.84 851.163 3514.1 851.303 3514.43L853.229 3518.99C853.704 3520.11 855.296 3520.11 855.771 3518.99L857.697 3514.43C857.837 3514.1 858.1 3513.84 858.431 3513.7L862.991 3511.77C864.115 3511.3 864.115 3509.7 862.991 3509.23L858.431 3507.3C858.1 3507.16 857.837 3506.9 857.697 3506.57L855.771 3502.01Z" fill="#57A3C5" fill-opacity="0.2"/>
<path d="M433.771 2847.01C433.296 2845.89 431.704 2845.89 431.229 2847.01L429.303 2851.57C429.163 2851.9 428.9 2852.16 428.569 2852.3L424.009 2854.23C422.885 2854.7 422.885 2856.3 424.009 2856.77L428.569 2858.7C428.9 2858.84 429.163 2859.1 429.303 2859.43L431.229 2863.99C431.704 2865.11 433.296 2865.11 433.771 2863.99L435.697 2859.43C435.837 2859.1 436.1 2858.84 436.431 2858.7L440.991 2856.77C442.115 2856.3 442.115 2854.7 440.991 2854.23L436.431 2852.3C436.1 2852.16 435.837 2851.9 435.697 2851.57L433.771 2847.01Z" fill="#57A3C5" fill-opacity="0.2"/>
<path d="M623.771 3266.01C623.296 3264.89 621.704 3264.89 621.229 3266.01L619.303 3270.57C619.163 3270.9 618.9 3271.16 618.569 3271.3L614.009 3273.23C612.885 3273.7 612.885 3275.3 614.009 3275.77L618.569 3277.7C618.9 3277.84 619.163 3278.1 619.303 3278.43L621.229 3282.99C621.704 3284.11 623.296 3284.11 623.771 3282.99L625.697 3278.43C625.837 3278.1 626.1 3277.84 626.431 3277.7L630.991 3275.77C632.115 3275.3 632.115 3273.7 630.991 3273.23L626.431 3271.3C626.1 3271.16 625.837 3270.9 625.697 3270.57L623.771 3266.01Z" fill="#57A3C5" fill-opacity="0.2"/>
<path d="M941.771 2824.01C941.296 2822.89 939.704 2822.89 939.229 2824.01L937.303 2828.57C937.163 2828.9 936.9 2829.16 936.569 2829.3L932.009 2831.23C930.885 2831.7 930.885 2833.3 932.009 2833.77L936.569 2835.7C936.9 2835.84 937.163 2836.1 937.303 2836.43L939.229 2840.99C939.704 2842.11 941.296 2842.11 941.771 2840.99L943.697 2836.43C943.837 2836.1 944.1 2835.84 944.431 2835.7L948.991 2833.77C950.115 2833.3 950.115 2831.7 948.991 2831.23L944.431 2829.3C944.1 2829.16 943.837 2828.9 943.697 2828.57L941.771 2824.01Z" fill="#57A3C5" fill-opacity="0.2"/>
<path d="M299.771 2781.01C299.296 2779.89 297.704 2779.89 297.229 2781.01L295.303 2785.57C295.163 2785.9 294.9 2786.16 294.569 2786.3L290.009 2788.23C288.885 2788.7 288.885 2790.3 290.009 2790.77L294.569 2792.7C294.9 2792.84 295.163 2793.1 295.303 2793.43L297.229 2797.99C297.704 2799.11 299.296 2799.11 299.771 2797.99L301.697 2793.43C301.837 2793.1 302.1 2792.84 302.431 2792.7L306.991 2790.77C308.115 2790.3 308.115 2788.7 306.991 2788.23L302.431 2786.3C302.1 2786.16 301.837 2785.9 301.697 2785.57L299.771 2781.01Z" fill="#57A3C5" fill-opacity="0.2"/>
<path d="M1355.34 3535.65C1355.22 3534.43 1353.7 3533.96 1352.91 3534.9L1349.72 3538.68C1349.49 3538.96 1349.16 3539.13 1348.8 3539.17L1343.88 3539.66C1342.67 3539.78 1342.2 3541.3 1343.13 3542.09L1346.92 3545.28C1347.19 3545.51 1347.37 3545.84 1347.4 3546.2L1347.89 3551.12C1348.02 3552.33 1349.54 3552.8 1350.32 3551.87L1353.51 3548.08C1353.74 3547.81 1354.07 3547.63 1354.43 3547.6L1359.35 3547.1C1360.57 3546.98 1361.04 3545.46 1360.1 3544.68L1356.32 3541.49C1356.04 3541.26 1355.87 3540.93 1355.83 3540.57L1355.34 3535.65Z" fill="#57A3C5" fill-opacity="0.2"/>
<circle cx="6" cy="6" r="6" transform="matrix(-1 0 0 1 1338 3624)" fill="#5D939E" fill-opacity="0.2"/>
<circle cx="6" cy="6" r="6" transform="matrix(-1 0 0 1 1282 3738)" fill="#5D939E" fill-opacity="0.2"/>
<circle cx="6" cy="6" r="6" transform="matrix(-1 0 0 1 1168 4048)" fill="#5D939E" fill-opacity="0.2"/>
<circle cx="6" cy="6" r="6" transform="matrix(-1 0 0 1 458 4036)" fill="#5D939E" fill-opacity="0.2"/>
<circle cx="6" cy="6" r="6" transform="matrix(-1 0 0 1 1190 4281)" fill="#5D939E" fill-opacity="0.2"/>
<circle cx="6" cy="6" r="6" transform="matrix(-1 0 0 1 52 3885)" fill="#5D939E" fill-opacity="0.2"/>
<circle cx="10" cy="10" r="10" transform="matrix(-1 0 0 1 208 3810)" fill="#5D939E" fill-opacity="0.2"/>
<circle cx="6" cy="6" r="6" transform="matrix(-1 0 0 1 204 3814)" fill="#52B3C9" fill-opacity="0.2"/>
<circle cx="10" cy="10" r="10" transform="matrix(-1 0 0 1 1404 4137)" fill="#5D939E" fill-opacity="0.2"/>
<circle cx="6" cy="6" r="6" transform="matrix(-1 0 0 1 1400 4141)" fill="#52B3C9" fill-opacity="0.2"/>
<circle cx="10" cy="10" r="10" transform="matrix(-1 0 0 1 990 3915)" fill="#5D939E" fill-opacity="0.2"/>
<circle cx="6" cy="6" r="6" transform="matrix(-1 0 0 1 986 3919)" fill="#52B3C9" fill-opacity="0.2"/>
<circle cx="2.5" cy="2.5" r="2.5" transform="matrix(-1 0 0 1 1209 3663)" fill="#5D939E" fill-opacity="0.2"/>
<circle cx="2.5" cy="2.5" r="2.5" transform="matrix(-1 0 0 1 1007 4228)" fill="#5D939E" fill-opacity="0.2"/>
<circle cx="2.5" cy="2.5" r="2.5" transform="matrix(-1 0 0 1 1007 4228)" fill="#5D939E" fill-opacity="0.2"/>
<circle cx="2.5" cy="2.5" r="2.5" transform="matrix(-1 0 0 1 1053 4170)" fill="#5D939E" fill-opacity="0.2"/>
<circle cx="2.5" cy="2.5" r="2.5" transform="matrix(-1 0 0 1 733 3935)" fill="#5D939E" fill-opacity="0.2"/>
<circle cx="2.5" cy="2.5" r="2.5" transform="matrix(-1 0 0 1 587 4342)" fill="#5D939E" fill-opacity="0.2"/>
<circle cx="2.5" cy="2.5" r="2.5" transform="matrix(-1 0 0 1 675 3658)" fill="#5D939E" fill-opacity="0.2"/>
<circle cx="2.5" cy="2.5" r="2.5" transform="matrix(-1 0 0 1 836 4103)" fill="#5D939E" fill-opacity="0.2"/>
<circle cx="2.5" cy="2.5" r="2.5" transform="matrix(-1 0 0 1 522 4201)" fill="#5D939E" fill-opacity="0.2"/>
<circle cx="2.5" cy="2.5" r="2.5" transform="matrix(-1 0 0 1 266 4015)" fill="#5D939E" fill-opacity="0.2"/>
<circle cx="2.5" cy="2.5" r="2.5" transform="matrix(-1 0 0 1 384 4206)" fill="#5D939E" fill-opacity="0.2"/>
<circle cx="2.5" cy="2.5" r="2.5" transform="matrix(-1 0 0 1 655 4448)" fill="#5D939E" fill-opacity="0.2"/>
<circle cx="2.5" cy="2.5" r="2.5" transform="matrix(-1 0 0 1 1193 4393)" fill="#5D939E" fill-opacity="0.2"/>
<circle cx="2.5" cy="2.5" r="2.5" transform="matrix(-1 0 0 1 1193 4393)" fill="#5D939E" fill-opacity="0.2"/>
<circle cx="2.5" cy="2.5" r="2.5" transform="matrix(-1 0 0 1 604 3930)" fill="#5D939E" fill-opacity="0.2"/>
<circle cx="2.5" cy="2.5" r="2.5" transform="matrix(-1 0 0 1 149 3656)" fill="#5D939E" fill-opacity="0.2"/>
<circle cx="2.5" cy="2.5" r="2.5" transform="matrix(-1 0 0 1 1356 3807)" fill="#5D939E" fill-opacity="0.2"/>
<circle cx="2.5" cy="2.5" r="2.5" transform="matrix(-1 0 0 1 1372 4342)" fill="#5D939E" fill-opacity="0.2"/>
<path d="M843.771 4386.01C843.296 4384.89 841.704 4384.89 841.229 4386.01L839.303 4390.57C839.163 4390.9 838.9 4391.16 838.569 4391.3L834.009 4393.23C832.885 4393.7 832.885 4395.3 834.009 4395.77L838.569 4397.7C838.9 4397.84 839.163 4398.1 839.303 4398.43L841.229 4402.99C841.704 4404.11 843.296 4404.11 843.771 4402.99L845.697 4398.43C845.837 4398.1 846.1 4397.84 846.431 4397.7L850.991 4395.77C852.115 4395.3 852.115 4393.7 850.991 4393.23L846.431 4391.3C846.1 4391.16 845.837 4390.9 845.697 4390.57L843.771 4386.01Z" fill="#57A3C5" fill-opacity="0.2"/>
<path d="M421.771 3730.01C421.296 3728.89 419.704 3728.89 419.229 3730.01L417.303 3734.57C417.163 3734.9 416.9 3735.16 416.569 3735.3L412.009 3737.23C410.885 3737.7 410.885 3739.3 412.009 3739.77L416.569 3741.7C416.9 3741.84 417.163 3742.1 417.303 3742.43L419.229 3746.99C419.704 3748.11 421.296 3748.11 421.771 3746.99L423.697 3742.43C423.837 3742.1 424.1 3741.84 424.431 3741.7L428.991 3739.77C430.115 3739.3 430.115 3737.7 428.991 3737.23L424.431 3735.3C424.1 3735.16 423.837 3734.9 423.697 3734.57L421.771 3730.01Z" fill="#57A3C5" fill-opacity="0.2"/>
<path d="M611.771 4150.01C611.296 4148.89 609.704 4148.89 609.229 4150.01L607.303 4154.57C607.163 4154.9 606.9 4155.16 606.569 4155.3L602.009 4157.23C600.885 4157.7 600.885 4159.3 602.009 4159.77L606.569 4161.7C606.9 4161.84 607.163 4162.1 607.303 4162.43L609.229 4166.99C609.704 4168.11 611.296 4168.11 611.771 4166.99L613.697 4162.43C613.837 4162.1 614.1 4161.84 614.431 4161.7L618.991 4159.77C620.115 4159.3 620.115 4157.7 618.991 4157.23L614.431 4155.3C614.1 4155.16 613.837 4154.9 613.697 4154.57L611.771 4150.01Z" fill="#57A3C5" fill-opacity="0.2"/>
<path d="M929.771 3707.01C929.296 3705.89 927.704 3705.89 927.229 3707.01L925.303 3711.57C925.163 3711.9 924.9 3712.16 924.569 3712.3L920.009 3714.23C918.885 3714.7 918.885 3716.3 920.009 3716.77L924.569 3718.7C924.9 3718.84 925.163 3719.1 925.303 3719.43L927.229 3723.99C927.704 3725.11 929.296 3725.11 929.771 3723.99L931.697 3719.43C931.837 3719.1 932.1 3718.84 932.431 3718.7L936.991 3716.77C938.115 3716.3 938.115 3714.7 936.991 3714.23L932.431 3712.3C932.1 3712.16 931.837 3711.9 931.697 3711.57L929.771 3707.01Z" fill="#57A3C5" fill-opacity="0.2"/>
<path d="M287.771 3664.01C287.296 3662.89 285.704 3662.89 285.229 3664.01L283.303 3668.57C283.163 3668.9 282.9 3669.16 282.569 3669.3L278.009 3671.23C276.885 3671.7 276.885 3673.3 278.009 3673.77L282.569 3675.7C282.9 3675.84 283.163 3676.1 283.303 3676.43L285.229 3680.99C285.704 3682.11 287.296 3682.11 287.771 3680.99L289.697 3676.43C289.837 3676.1 290.1 3675.84 290.431 3675.7L294.991 3673.77C296.115 3673.3 296.115 3671.7 294.991 3671.23L290.431 3669.3C290.1 3669.16 289.837 3668.9 289.697 3668.57L287.771 3664.01Z" fill="#57A3C5" fill-opacity="0.2"/>
<path d="M1343.34 4435.65C1343.22 4434.43 1341.7 4433.96 1340.91 4434.9L1337.72 4438.68C1337.49 4438.96 1337.16 4439.13 1336.8 4439.17L1331.88 4439.66C1330.67 4439.78 1330.2 4441.3 1331.13 4442.09L1334.92 4445.28C1335.19 4445.51 1335.37 4445.84 1335.4 4446.2L1335.89 4451.12C1336.02 4452.33 1337.54 4452.8 1338.32 4451.87L1341.51 4448.08C1341.74 4447.81 1342.07 4447.63 1342.43 4447.6L1347.35 4447.1C1348.57 4446.98 1349.04 4445.46 1348.1 4444.68L1344.32 4441.49C1344.04 4441.26 1343.87 4440.93 1343.83 4440.57L1343.34 4435.65Z" fill="#57A3C5" fill-opacity="0.2"/>
<circle cx="6" cy="6" r="6" transform="matrix(-1 0 0 1 1330 4568)" fill="#5D939E" fill-opacity="0.2"/>
<circle cx="6" cy="6" r="6" transform="matrix(-1 0 0 1 1274 4682)" fill="#5D939E" fill-opacity="0.2"/>
<circle cx="6" cy="6" r="6" transform="matrix(-1 0 0 1 450 4979)" fill="#5D939E" fill-opacity="0.2"/>
<circle cx="6" cy="6" r="6" transform="matrix(-1 0 0 1 44 4828)" fill="#5D939E" fill-opacity="0.2"/>
<circle cx="10" cy="10" r="10" transform="matrix(-1 0 0 1 200 4770)" fill="#5D939E" fill-opacity="0.2"/>
<circle cx="6" cy="6" r="6" transform="matrix(-1 0 0 1 196 4774)" fill="#52B3C9" fill-opacity="0.2"/>
<circle cx="10" cy="10" r="10" transform="matrix(-1 0 0 1 982 4858)" fill="#5D939E" fill-opacity="0.2"/>
<circle cx="6" cy="6" r="6" transform="matrix(-1 0 0 1 978 4862)" fill="#52B3C9" fill-opacity="0.2"/>
<circle cx="2.5" cy="2.5" r="2.5" transform="matrix(-1 0 0 1 1201 4607)" fill="#5D939E" fill-opacity="0.2"/>
<circle cx="2.5" cy="2.5" r="2.5" transform="matrix(-1 0 0 1 725 4878)" fill="#5D939E" fill-opacity="0.2"/>
<circle cx="2.5" cy="2.5" r="2.5" transform="matrix(-1 0 0 1 667 4602)" fill="#5D939E" fill-opacity="0.2"/>
<circle cx="2.5" cy="2.5" r="2.5" transform="matrix(-1 0 0 1 258 4958)" fill="#5D939E" fill-opacity="0.2"/>
<circle cx="2.5" cy="2.5" r="2.5" transform="matrix(-1 0 0 1 596 4873)" fill="#5D939E" fill-opacity="0.2"/>
<circle cx="2.5" cy="2.5" r="2.5" transform="matrix(-1 0 0 1 141 4600)" fill="#5D939E" fill-opacity="0.2"/>
<circle cx="2.5" cy="2.5" r="2.5" transform="matrix(-1 0 0 1 1348 4767)" fill="#5D939E" fill-opacity="0.2"/>
<path d="M413.771 4674.01C413.296 4672.89 411.704 4672.89 411.229 4674.01L409.303 4678.57C409.163 4678.9 408.9 4679.16 408.569 4679.3L404.009 4681.23C402.885 4681.7 402.885 4683.3 404.009 4683.77L408.569 4685.7C408.9 4685.84 409.163 4686.1 409.303 4686.43L411.229 4690.99C411.704 4692.11 413.296 4692.11 413.771 4690.99L415.697 4686.43C415.837 4686.1 416.1 4685.84 416.431 4685.7L420.991 4683.77C422.115 4683.3 422.115 4681.7 420.991 4681.23L416.431 4679.3C416.1 4679.16 415.837 4678.9 415.697 4678.57L413.771 4674.01Z" fill="#57A3C5" fill-opacity="0.2"/>
<path d="M921.771 4651.01C921.296 4649.89 919.704 4649.89 919.229 4651.01L917.303 4655.57C917.163 4655.9 916.9 4656.16 916.569 4656.3L912.009 4658.23C910.885 4658.7 910.885 4660.3 912.009 4660.77L916.569 4662.7C916.9 4662.84 917.163 4663.1 917.303 4663.43L919.229 4667.99C919.704 4669.11 921.296 4669.11 921.771 4667.99L923.697 4663.43C923.837 4663.1 924.1 4662.84 924.431 4662.7L928.991 4660.77C930.115 4660.3 930.115 4658.7 928.991 4658.23L924.431 4656.3C924.1 4656.16 923.837 4655.9 923.697 4655.57L921.771 4651.01Z" fill="#57A3C5" fill-opacity="0.2"/>
<path d="M279.771 4608.01C279.296 4606.89 277.704 4606.89 277.229 4608.01L275.303 4612.57C275.163 4612.9 274.9 4613.16 274.569 4613.3L270.009 4615.23C268.885 4615.7 268.885 4617.3 270.009 4617.77L274.569 4619.7C274.9 4619.84 275.163 4620.1 275.303 4620.43L277.229 4624.99C277.704 4626.11 279.296 4626.11 279.771 4624.99L281.697 4620.43C281.837 4620.1 282.1 4619.84 282.431 4619.7L286.991 4617.77C288.115 4617.3 288.115 4615.7 286.991 4615.23L282.431 4613.3C282.1 4613.16 281.837 4612.9 281.697 4612.57L279.771 4608.01Z" fill="#57A3C5" fill-opacity="0.2"/>
<defs>
<filter id="filter0_f_760_835" x="587" y="1131" width="3675" height="3877" filterUnits="userSpaceOnUse" color-interpolation-filters="sRGB">
<feFlood flood-opacity="0" result="BackgroundImageFix"/>
<feBlend mode="normal" in="SourceGraphic" in2="BackgroundImageFix" result="shape"/>
<feGaussianBlur stdDeviation="300" result="effect1_foregroundBlur_760_835"/>
</filter>
<filter id="filter1_f_760_835" x="124.729" y="2968.73" width="75.9207" height="75.9207" filterUnits="userSpaceOnUse" color-interpolation-filters="sRGB">
<feFlood flood-opacity="0" result="BackgroundImageFix"/>
<feBlend mode="normal" in="SourceGraphic" in2="BackgroundImageFix" result="shape"/>
<feGaussianBlur stdDeviation="7.13545" result="effect1_foregroundBlur_760_835"/>
</filter>
<filter id="filter2_f_760_835" x="145.729" y="1751.73" width="75.9207" height="75.9212" filterUnits="userSpaceOnUse" color-interpolation-filters="sRGB">
<feFlood flood-opacity="0" result="BackgroundImageFix"/>
<feBlend mode="normal" in="SourceGraphic" in2="BackgroundImageFix" result="shape"/>
<feGaussianBlur stdDeviation="7.13545" result="effect1_foregroundBlur_760_835"/>
</filter>
<filter id="filter3_f_760_835" x="1082.73" y="3974.73" width="75.9207" height="75.9207" filterUnits="userSpaceOnUse" color-interpolation-filters="sRGB">
<feFlood flood-opacity="0" result="BackgroundImageFix"/>
<feBlend mode="normal" in="SourceGraphic" in2="BackgroundImageFix" result="shape"/>
<feGaussianBlur stdDeviation="7.13545" result="effect1_foregroundBlur_760_835"/>
</filter>
<linearGradient id="paint0_linear_760_835" x1="250.295" y1="2457.32" x2="-1083.19" y2="3338.77" gradientUnits="userSpaceOnUse">
<stop stop-color="#180A37"/>
<stop offset="1" stop-color="#5024AE"/>
</linearGradient>
<linearGradient id="paint1_linear_760_835" x1="434.731" y1="1086.6" x2="-2052.5" y2="1571" gradientUnits="userSpaceOnUse">
<stop stop-color="#110726"/>
<stop offset="1" stop-color="#4C22A5"/>
</linearGradient>
<linearGradient id="paint2_linear_760_835" x1="434.731" y1="1086.6" x2="-2052.5" y2="1571" gradientUnits="userSpaceOnUse">
<stop stop-color="#110726"/>
<stop offset="1" stop-color="#4C22A5"/>
</linearGradient>
<linearGradient id="paint3_linear_760_835" x1="720" y1="2991" x2="-1562.5" y2="3794.5" gradientUnits="userSpaceOnUse">
<stop stop-color="#110726"/>
<stop offset="1" stop-color="#2C1360"/>
</linearGradient>
<linearGradient id="paint4_linear_760_835" x1="720" y1="2991" x2="-1562.5" y2="3794.5" gradientUnits="userSpaceOnUse">
<stop stop-color="#110726"/>
<stop offset="1" stop-color="#2C1360"/>
</linearGradient>
<linearGradient id="paint5_linear_760_835" x1="203.5" y1="1800.29" x2="8885" y2="4689.29" gradientUnits="userSpaceOnUse">
<stop stop-color="#110726"/>
<stop offset="1" stop-color="#4B20A5"/>
</linearGradient>
<linearGradient id="paint6_linear_760_835" x1="163.5" y1="1959.29" x2="8845" y2="4848.29" gradientUnits="userSpaceOnUse">
<stop stop-color="#110726"/>
<stop offset="0.895" stop-color="#3D1A86"/>
<stop offset="1" stop-color="#4B20A5"/>
</linearGradient>
<linearGradient id="paint7_linear_760_835" x1="-285.5" y1="4734" x2="705.5" y2="4658" gradientUnits="userSpaceOnUse">
<stop stop-color="#543792"/>
<stop offset="1" stop-color="#19112C"/>
</linearGradient>
<linearGradient id="paint8_linear_760_835" x1="1147" y1="4577" x2="2005" y2="6958.01" gradientUnits="userSpaceOnUse">
<stop stop-color="#382561"/>
<stop offset="1" stop-color="#734CC7"/>
</linearGradient>
</defs>
</svg>
