<svg width="36" height="33" viewBox="0 0 36 33" fill="none" xmlns="http://www.w3.org/2000/svg">
<path d="M28.477 0.541504H8.11098C6.18262 0.543814 4.3339 1.31088 2.97034 2.67444C1.60678 4.038 0.839712 5.88672 0.837402 7.81508L0.837402 25.2717C0.839712 27.2 1.60678 29.0488 2.97034 30.4123C4.3339 31.7759 6.18262 32.5429 8.11098 32.5452H28.477C30.4054 32.5429 32.2541 31.7759 33.6176 30.4123C34.9812 29.0488 35.7483 27.2 35.7506 25.2717V7.81508C35.7483 5.88672 34.9812 4.038 33.6176 2.67444C32.2541 1.31088 30.4054 0.543814 28.477 0.541504V0.541504ZM8.11098 3.45094H28.477C29.3481 3.45265 30.1987 3.71499 30.9194 4.20419C31.6401 4.6934 32.1979 5.38708 32.5211 6.19598L21.3809 17.3377C20.5611 18.1542 19.4511 18.6127 18.294 18.6127C17.1369 18.6127 16.0269 18.1542 15.2071 17.3377L4.06687 6.19598C4.39003 5.38708 4.94787 4.6934 5.66858 4.20419C6.3893 3.71499 7.23992 3.45265 8.11098 3.45094V3.45094ZM28.477 29.6358H8.11098C6.95354 29.6358 5.8435 29.176 5.02506 28.3576C4.20663 27.5392 3.74683 26.4291 3.74683 25.2717V9.99716L13.1501 19.3946C14.5156 20.7566 16.3654 21.5215 18.294 21.5215C20.2226 21.5215 22.0724 20.7566 23.4379 19.3946L32.8411 9.99716V25.2717C32.8411 26.4291 32.3814 27.5392 31.5629 28.3576C30.7445 29.176 29.6344 29.6358 28.477 29.6358Z" fill="white"/>
</svg>
