<svg width="114" height="117" viewBox="0 0 114 117" fill="none" xmlns="http://www.w3.org/2000/svg">
<ellipse cx="57" cy="58.5" rx="57" ry="58.5" fill="#F254CF"/>
<g clip-path="url(#clip0_590_1924)">
<path d="M69.3333 64.3331C67.9188 64.3331 66.5623 64.895 65.5621 65.8952C64.5619 66.8954 64 68.252 64 69.6665C64 71.0809 64.5619 72.4375 65.5621 73.4377C66.5623 74.4379 67.9188 74.9998 69.3333 74.9998C70.7478 74.9998 72.1044 74.4379 73.1046 73.4377C74.1047 72.4375 74.6666 71.0809 74.6666 69.6665C74.6666 68.252 74.1047 66.8954 73.1046 65.8952C72.1044 64.895 70.7478 64.3331 69.3333 64.3331Z" fill="#090217"/>
<path d="M45.3327 56.3331C42.5037 56.3331 39.7906 57.4569 37.7902 59.4573C35.7898 61.4577 34.666 64.1708 34.666 66.9998C34.666 69.8287 35.7898 72.5418 37.7902 74.5422C39.7906 76.5426 42.5037 77.6664 45.3327 77.6664C48.1616 77.6664 50.8747 76.5426 52.8751 74.5422C54.8755 72.5418 55.9993 69.8287 55.9993 66.9998C55.9993 64.1708 54.8755 61.4577 52.8751 59.4573C50.8747 57.4569 48.1616 56.3331 45.3327 56.3331ZM45.3327 72.3331C43.9182 72.3331 42.5616 71.7712 41.5614 70.771C40.5612 69.7708 39.9993 68.4143 39.9993 66.9998C39.9993 65.5853 40.5612 64.2287 41.5614 63.2285C42.5616 62.2284 43.9182 61.6665 45.3327 61.6665C46.7471 61.6665 48.1037 62.2284 49.1039 63.2285C50.1041 64.2287 50.666 65.5853 50.666 66.9998C50.666 68.4143 50.1041 69.7708 49.1039 70.771C48.1037 71.7712 46.7471 72.3331 45.3327 72.3331Z" fill="#090217"/>
<path d="M81.5711 44.8669L60.6698 29.2643C58.4113 27.7392 55.7368 26.9492 53.0122 27.0021C50.2876 27.0551 47.6459 27.9486 45.4484 29.5603C36.8154 36.0207 30.3568 44.9593 26.9337 55.1843C26.8951 55.3206 26.8666 55.4597 26.8484 55.6003C26.5546 56.1762 26.3024 56.7724 26.0937 57.3843C23.2923 65.334 23.2923 74.0025 26.0937 81.9523C26.9899 84.5927 28.6914 86.8858 30.9588 88.5088C33.2262 90.1319 35.9453 91.0032 38.7337 91.0003H48.3977C49.5542 90.982 50.6747 90.5954 51.5965 89.8966C52.5182 89.1979 53.1931 88.2235 53.5231 87.1149C53.7932 86.3186 54.3061 85.6269 54.9896 85.1371C55.6731 84.6472 56.4928 84.3838 57.3337 84.3838C58.1747 84.3838 58.9944 84.6472 59.6779 85.1371C60.3614 85.6269 60.8743 86.3186 61.1444 87.1149C61.4744 88.2235 62.1493 89.1979 63.071 89.8966C63.9927 90.5954 65.1133 90.982 66.2697 91.0003H74.6671C78.202 90.996 81.5909 89.5899 84.0905 87.0904C86.5901 84.5908 87.9962 81.2019 88.0004 77.6669V57.6856C87.9945 55.197 87.4107 52.7438 86.295 50.5193C85.1793 48.2948 83.5622 46.3598 81.5711 44.8669ZM48.6404 33.8323C49.933 32.8862 51.4843 32.3587 53.0856 32.3205C54.687 32.2824 56.2616 32.7355 57.5977 33.6189L77.3044 48.3336H38.7364C37.6983 48.3326 36.6637 48.4534 35.6537 48.6936C38.9184 42.9022 43.3388 37.8437 48.6404 33.8323ZM82.6671 77.6669C82.6671 79.7887 81.8242 81.8235 80.3239 83.3238C78.8236 84.8241 76.7888 85.6669 74.6671 85.6669L66.2244 85.4909C65.5993 83.6097 64.3933 81.9754 62.7799 80.8234C61.1666 79.6715 59.2292 79.0613 57.2469 79.0809C55.2646 79.1005 53.3397 79.7487 51.7494 80.9323C50.1591 82.1159 48.9856 83.7737 48.3977 85.6669H38.7337C37.0604 85.6677 35.429 85.1438 34.069 84.1689C32.709 83.194 31.689 81.8172 31.1524 80.2323C28.7324 73.3975 28.7324 65.939 31.1524 59.1043C31.6908 57.5197 32.7116 56.1434 34.0716 55.1683C35.4317 54.1931 37.0629 53.6682 38.7364 53.6669H81.8671C82.391 54.9422 82.6626 56.3069 82.6671 57.6856V77.6669Z" fill="#090217"/>
</g>
<defs>
<clipPath id="clip0_590_1924">
<rect width="64" height="64" fill="white" transform="translate(24 27)"/>
</clipPath>
</defs>
</svg>
