<svg width="226" height="51" viewBox="0 0 226 51" fill="none" xmlns="http://www.w3.org/2000/svg">
<path d="M152.204 37.3396V17.6521H155.958V24.4771L155.128 23.7646C155.465 22.5646 156.03 21.4771 156.825 20.5021C157.643 19.5021 158.57 18.7146 159.605 18.1396C160.664 17.5396 161.759 17.2396 162.89 17.2396C163.612 17.2396 164.298 17.3146 164.948 17.4646C165.622 17.6146 166.163 17.8271 166.572 18.1021L165.598 22.1521C165.14 21.9021 164.599 21.7021 163.973 21.5521C163.347 21.4021 162.758 21.3271 162.204 21.3271C161.289 21.3271 160.447 21.4896 159.677 21.8146C158.907 22.1396 158.245 22.5896 157.691 23.1646C157.138 23.7146 156.704 24.3396 156.391 25.0396C156.103 25.7396 155.958 26.4521 155.958 27.1771V37.3396H152.204Z" fill="white"/>
<path d="M111.353 37.8062V10.0562H115.072V37.8062H111.353Z" fill="white"/>
<path d="M91.5666 37.7521C89.2802 37.7521 87.2344 37.3271 85.4292 36.4771C83.6482 35.6021 82.2523 34.4146 81.2414 32.9146C80.2305 31.3896 79.7251 29.6646 79.7251 27.7396C79.7251 26.1146 80.0259 24.6646 80.6277 23.3896C81.2294 22.1146 82.0477 21.0271 83.0826 20.1271C84.1416 19.2021 85.3691 18.4896 86.765 17.9896C88.1851 17.4896 89.6773 17.2396 91.2417 17.2396C92.7099 17.2396 94.0817 17.4771 95.3574 17.9521C96.633 18.4271 97.7521 19.0896 98.7149 19.9396C99.6776 20.7896 100.424 21.8021 100.953 22.9771C101.483 24.1271 101.735 25.4021 101.711 26.8021L101.675 28.6771H82.9382L82.1078 25.6021H98.4622L97.9206 26.0146V25.1146C97.8003 24.2646 97.4152 23.5146 96.7653 22.8646C96.1155 22.2146 95.3092 21.7146 94.3465 21.3646C93.3838 20.9896 92.3488 20.8021 91.2417 20.8021C89.7254 20.8021 88.3776 21.0396 87.1983 21.5146C86.0189 21.9646 85.0923 22.6771 84.4184 23.6521C83.7445 24.6271 83.4075 25.9021 83.4075 27.4771C83.4075 28.8271 83.7806 30.0146 84.5267 31.0396C85.2728 32.0396 86.2957 32.8146 87.5954 33.3646C88.9191 33.9146 90.4475 34.1896 92.1804 34.1896C93.7689 34.1896 95.1167 33.9646 96.2238 33.5146C97.331 33.0396 98.3057 32.5021 99.1481 31.9021L100.845 34.7521C100.171 35.3021 99.3286 35.8021 98.3177 36.2521C97.331 36.7021 96.2599 37.0646 95.1047 37.3396C93.9494 37.6146 92.77 37.7521 91.5666 37.7521Z" fill="white"/>
<path d="M64.6068 38.3546V12.9296H68.3254V38.3546H64.6068ZM59.2998 22.4171V18.6671H74.6071V22.4171H59.2998Z" fill="white"/>
<path d="M43.78 37.8749C41.8064 37.8749 39.9892 37.5874 38.3285 37.0124C36.6919 36.4374 35.32 35.5124 34.2129 34.2374L36.74 31.8374C37.6306 32.7624 38.6535 33.4624 39.8087 33.9374C40.964 34.4124 42.2396 34.6499 43.6356 34.6499C44.1891 34.6499 44.7547 34.6124 45.3324 34.5374C45.91 34.4624 46.4395 34.3249 46.9209 34.1249C47.4263 33.9249 47.8234 33.6749 48.1123 33.3749C48.4251 33.0499 48.5816 32.6499 48.5816 32.1749C48.5816 31.3999 48.0641 30.8249 47.0292 30.4499C46.4997 30.2499 45.8859 30.0624 45.188 29.8874C44.49 29.6874 43.7078 29.5124 42.8413 29.3624C41.3972 29.0624 40.1216 28.7249 39.0145 28.3499C37.9074 27.9749 36.9928 27.4874 36.2707 26.8874C35.7653 26.4374 35.3682 25.8999 35.0793 25.2749C34.8146 24.6499 34.6822 23.9249 34.6822 23.0999C34.6822 22.2249 34.8988 21.4499 35.3321 20.7749C35.7653 20.0749 36.367 19.4749 37.1372 18.9749C37.9314 18.4499 38.846 18.0624 39.8809 17.8124C40.9399 17.5374 42.0711 17.3999 43.2746 17.3999C44.3095 17.3999 45.3805 17.5124 46.4877 17.7374C47.5948 17.9624 48.6418 18.3124 49.6285 18.7874C50.6394 19.2374 51.4818 19.8249 52.1557 20.5499L50.134 23.1374C49.5323 22.6374 48.8343 22.1999 48.0401 21.8249C47.2699 21.4249 46.4756 21.1249 45.6573 20.9249C44.839 20.6999 44.0688 20.5874 43.3468 20.5874C42.7691 20.5874 42.1915 20.6249 41.6138 20.6999C41.0362 20.7749 40.4947 20.9124 39.9892 21.1124C39.5079 21.2874 39.1228 21.5249 38.834 21.8249C38.5452 22.1249 38.4008 22.4999 38.4008 22.9499C38.4008 23.2499 38.473 23.5374 38.6174 23.8124C38.7858 24.0624 39.0145 24.2874 39.3033 24.4874C39.7847 24.7874 40.4345 25.0624 41.2528 25.3124C42.0711 25.5374 42.9978 25.7499 44.0327 25.9499C45.3083 26.1999 46.4877 26.4999 47.5707 26.8499C48.6779 27.1749 49.6165 27.5999 50.3867 28.1249C50.9884 28.5499 51.4457 29.0499 51.7586 29.6249C52.0955 30.1999 52.264 30.8749 52.264 31.6499C52.264 32.9499 51.8789 34.0749 51.1087 35.0249C50.3386 35.9499 49.3157 36.6624 48.0401 37.1624C46.7885 37.6374 45.3685 37.8749 43.78 37.8749Z" fill="white"/>
<path d="M17.1116 37.7521C14.8251 37.7521 12.7793 37.3271 10.9742 36.4771C9.19313 35.6021 7.79718 34.4146 6.78631 32.9146C5.77545 31.3896 5.27002 29.6646 5.27002 27.7396C5.27002 26.1146 5.57087 24.6646 6.17258 23.3896C6.77428 22.1146 7.5926 21.0271 8.62753 20.1271C9.68653 19.2021 10.914 18.4896 12.31 17.9896C13.73 17.4896 15.2222 17.2396 16.7866 17.2396C18.2548 17.2396 19.6267 17.4771 20.9023 17.9521C22.1779 18.4271 23.2971 19.0896 24.2598 19.9396C25.2225 20.7896 25.9686 21.8021 26.4981 22.9771C27.0276 24.1271 27.2804 25.4021 27.2563 26.8021L27.2202 28.6771H8.48312L7.65277 25.6021H24.0071L23.4655 26.0146V25.1146C23.3452 24.2646 22.9601 23.5146 22.3103 22.8646C21.6604 22.2146 20.8542 21.7146 19.8914 21.3646C18.9287 20.9896 17.8938 20.8021 16.7866 20.8021C15.2703 20.8021 13.9225 21.0396 12.7432 21.5146C11.5638 21.9646 10.6372 22.6771 9.96331 23.6521C9.2894 24.6271 8.95245 25.9021 8.95245 27.4771C8.95245 28.8271 9.3255 30.0146 10.0716 31.0396C10.8177 32.0396 11.8406 32.8146 13.1403 33.3646C14.4641 33.9146 15.9924 34.1896 17.7253 34.1896C19.3138 34.1896 20.6616 33.9646 21.7687 33.5146C22.8759 33.0396 23.8506 32.5021 24.693 31.9021L26.3898 34.7521C25.7159 35.3021 24.8735 35.8021 23.8627 36.2521C22.8759 36.7021 21.8048 37.0646 20.6496 37.3396C19.4943 37.6146 18.315 37.7521 17.1116 37.7521Z" fill="white"/>
<path d="M135.594 32.6621C135.594 33.4905 134.957 34.1621 134.172 34.1621C133.387 34.1621 132.751 33.4905 132.751 32.6621C132.751 31.8337 133.387 31.1621 134.172 31.1621C134.957 31.1621 135.594 31.8337 135.594 32.6621Z" fill="#F8BC3B"/>
<path d="M133.818 16.9121L123.513 37.1621H127.422L133.818 24.4121L140.925 37.1621H144.834L133.818 16.9121Z" fill="white"/>
<path fill-rule="evenodd" clip-rule="evenodd" d="M133.814 16.5212L145.145 37.3496H140.822L133.828 24.8012L127.533 37.3496H123.215L133.814 16.5212ZM133.825 17.3029L123.814 36.9746H127.314L133.811 24.0229L141.03 36.9746H144.526L133.825 17.3029Z" fill="white"/>
</svg>
