<svg width="38" height="40" viewBox="0 0 38 40" fill="none" xmlns="http://www.w3.org/2000/svg">
<path fill-rule="evenodd" clip-rule="evenodd" d="M9.64767 0.264049C7.16132 0.693828 5.4519 1.59816 3.78038 3.36791C2.5782 4.64088 1.84004 5.87661 1.3205 7.48622C0.8083 9.07307 0.837715 8.3291 0.837715 19.708C0.837715 31.0868 0.8083 30.3428 1.3205 31.9297C1.84004 33.5393 2.5782 34.775 3.78038 36.048C4.98264 37.3209 6.14972 38.1025 7.66992 38.6526C9.16862 39.1949 8.46598 39.1637 19.2128 39.1637C29.9595 39.1637 29.2569 39.1949 30.7556 38.6526C32.2758 38.1025 33.4429 37.3209 34.6451 36.048C35.8473 34.775 36.5855 33.5393 37.105 31.9297C37.6172 30.3428 37.5878 31.0868 37.5878 19.708C37.5878 8.3291 37.6172 9.07307 37.105 7.48622C36.5855 5.87661 35.8473 4.64088 34.6451 3.36791C33.4425 2.09457 32.2738 1.31207 30.7556 0.763884C29.2555 0.222091 30.077 0.259708 19.4285 0.245621C14.1479 0.238692 9.74655 0.246916 9.64767 0.264049ZM28.7666 3.86706C30.1643 4.16922 31.1409 4.71238 32.1824 5.76665C33.2555 6.85297 33.8749 8.04286 34.1737 9.59224C34.3104 10.3006 34.3155 10.6715 34.3155 19.708C34.3155 28.7444 34.3104 29.1153 34.1737 29.8237C33.8749 31.3731 33.2555 32.5629 32.1824 33.6493C31.1409 34.7035 30.1643 35.2467 28.7666 35.5489C28.0975 35.6935 27.7473 35.699 19.2128 35.699C10.6783 35.699 10.328 35.6935 9.65896 35.5489C8.26123 35.2467 7.28459 34.7035 6.24314 33.6493C5.16998 32.5629 4.55062 31.3731 4.25181 29.8237C4.11516 29.1153 4.10998 28.7444 4.10998 19.708C4.10998 10.6715 4.11516 10.3006 4.25181 9.59224C4.55062 8.04286 5.16998 6.85297 6.24314 5.76665C7.2738 4.72327 8.25102 4.176 9.63515 3.86691C10.2195 3.73639 10.8226 3.72726 19.1655 3.72223C27.7579 3.71705 28.0965 3.72223 28.7666 3.86706ZM28.4851 6.78604C27.7114 7.01806 27.0996 7.59823 26.8297 8.3559C26.6225 8.93714 26.6592 9.8347 26.9122 10.3754C27.8141 12.3036 30.4254 12.2934 31.282 10.3585C31.4464 9.98715 31.4748 9.82191 31.4748 9.23762C31.4748 8.46503 31.3519 8.10454 30.8961 7.54074C30.373 6.89371 29.2737 6.5496 28.4851 6.78604ZM17.5656 9.77919C16.7602 9.92204 15.5728 10.3497 14.8473 10.7581C12.9144 11.8461 11.5892 13.2918 10.6566 15.3295C9.93577 16.9045 9.75554 17.7803 9.75554 19.708C9.75554 21.6361 9.93599 22.5125 10.6569 24.0865C11.6334 26.2183 13.0661 27.7353 15.0775 28.7674C16.565 29.5306 17.3922 29.7214 19.2128 29.7214C21.0334 29.7214 21.8605 29.5306 23.348 28.7674C24.5746 28.138 25.5093 27.3915 26.3472 26.3721C26.9862 25.5945 27.334 25.0353 27.7686 24.0865C28.4895 22.5125 28.67 21.6361 28.67 19.708C28.67 18.2337 28.5845 17.5716 28.2627 16.5514C28.0671 15.9313 27.4833 14.6674 27.1462 14.1342C25.6862 11.8244 23.3345 10.21 20.795 9.77431C19.9557 9.63032 18.3914 9.63268 17.5656 9.77919ZM20.7824 13.3852C22.9774 14.0457 24.5609 15.732 25.1973 18.0868C25.4267 18.9357 25.4267 20.4802 25.1973 21.3291C24.5567 23.6996 22.9827 25.3662 20.7438 26.0445C19.9422 26.2874 18.4834 26.2874 17.6817 26.0445C15.4428 25.3662 13.8688 23.6996 13.2282 21.3291C12.9988 20.4802 12.9988 18.9357 13.2282 18.0868C13.9256 15.5061 15.7857 13.7134 18.2657 13.232C18.8217 13.124 20.1916 13.2074 20.7824 13.3852Z" fill="white"/>
</svg>
