<svg width="114" height="117" viewBox="0 0 114 117" fill="none" xmlns="http://www.w3.org/2000/svg">
<ellipse cx="57" cy="58.5" rx="57" ry="58.5" fill="#F8BC3B"/>
<g clip-path="url(#clip0_590_1925)">
<path d="M84.3333 42.6667H71C71 39.8377 69.8762 37.1246 67.8758 35.1242C65.8754 33.1238 63.1623 32 60.3333 32H41.6667C38.8377 32 36.1246 33.1238 34.1242 35.1242C32.1238 37.1246 31 39.8377 31 42.6667L31 93.3333C31 94.0406 31.281 94.7189 31.781 95.219C32.2811 95.7191 32.9594 96 33.6667 96C34.3739 96 35.0522 95.7191 35.5523 95.219C36.0524 94.7189 36.3333 94.0406 36.3333 93.3333V66.6667H57.6667C57.6667 69.4956 58.7905 72.2088 60.7909 74.2091C62.7913 76.2095 65.5044 77.3333 68.3333 77.3333H84.3333C87.1623 77.3333 89.8754 76.2095 91.8758 74.2091C93.8762 72.2088 95 69.4956 95 66.6667V53.3333C95 50.5044 93.8762 47.7912 91.8758 45.7909C89.8754 43.7905 87.1623 42.6667 84.3333 42.6667ZM36.3333 61.3333V42.6667C36.3333 41.2522 36.8952 39.8956 37.8954 38.8954C38.8956 37.8952 40.2522 37.3333 41.6667 37.3333H60.3333C61.7478 37.3333 63.1044 37.8952 64.1046 38.8954C65.1048 39.8956 65.6667 41.2522 65.6667 42.6667V56C65.6667 57.4145 65.1048 58.771 64.1046 59.7712C63.1044 60.7714 61.7478 61.3333 60.3333 61.3333H36.3333ZM89.6667 66.6667C89.6667 68.0812 89.1048 69.4377 88.1046 70.4379C87.1044 71.4381 85.7478 72 84.3333 72H68.3333C66.9188 72 65.5623 71.4381 64.5621 70.4379C63.5619 69.4377 63 68.0812 63 66.6667V66.288C65.2831 65.6985 67.3064 64.3692 68.7539 62.5078C70.2013 60.6464 70.9912 58.3579 71 56V48H84.3333C85.7478 48 87.1044 48.5619 88.1046 49.5621C89.1048 50.5623 89.6667 51.9188 89.6667 53.3333V66.6667Z" fill="#090217"/>
</g>
<defs>
<clipPath id="clip0_590_1925">
<rect width="64" height="64" fill="white" transform="translate(31 32)"/>
</clipPath>
</defs>
</svg>
