<svg width="452" height="583" viewBox="0 0 452 583" fill="none" xmlns="http://www.w3.org/2000/svg">
<ellipse cx="545.25" cy="448.234" rx="297.734" ry="263.029" transform="rotate(11.1305 545.25 448.234)" fill="#F8BC3B" fill-opacity="0.16"/>
<ellipse cx="171.813" cy="194.853" rx="171.813" ry="194.853" transform="matrix(0.427681 -0.90393 0.920875 0.389859 236.201 513.661)" fill="#AA80E0"/>
<mask id="mask0_582_1416" style="mask-type:alpha" maskUnits="userSpaceOnUse" x="294" y="218" width="437" height="433">
<ellipse cx="216.081" cy="217.936" rx="216.081" ry="217.936" transform="matrix(0.222638 -0.974901 0.97605 0.217544 252 597.316)" fill="#5544A4"/>
</mask>
<g mask="url(#mask0_582_1416)">
<ellipse cx="249.838" cy="263.865" rx="249.838" ry="263.865" transform="matrix(0.222638 -0.974901 0.97605 0.217544 200.188 569.768)" fill="#F99205"/>
<ellipse cx="299.188" cy="304.46" rx="299.188" ry="304.46" transform="matrix(0.222638 -0.974901 0.97605 0.217544 72.1748 541.236)" fill="#FDC17C"/>
<path d="M473.329 -58.2461C639.134 -21.2912 742.646 143.968 704.531 310.87C666.415 477.773 498.015 596.647 332.21 559.692C166.405 522.737 65.9826 343.947 104.098 177.045C142.214 10.1422 307.524 -95.201 473.329 -58.2461Z" fill="#FE9D01"/>
<path d="M453.492 -111.648C619.297 -74.693 722.81 90.566 684.694 257.468C646.579 424.371 478.178 543.245 312.374 506.291C146.569 469.336 46.1462 290.545 84.2617 123.643C122.377 -43.2596 287.687 -148.603 453.492 -111.648Z" fill="#FF7C07"/>
<path d="M427.949 -198.122C595.438 -160.792 699.488 8.392 660.352 179.761C621.217 351.131 450.542 473.685 283.054 436.355C115.566 399.025 14.6882 215.947 53.8238 44.5772C92.9595 -126.792 260.461 -235.452 427.949 -198.122Z" fill="#FC9E01"/>
<path d="M389.182 -266.804C556.67 -229.474 660.72 -60.2895 621.585 111.08C582.449 282.449 411.774 405.003 244.286 367.673C76.798 330.343 -24.0794 147.265 15.0562 -24.1043C54.1919 -195.474 221.694 -304.134 389.182 -266.804Z" fill="#FEDB99"/>
<path d="M268.655 -28.8224C436.143 8.50768 542.749 166.499 506.767 324.062C470.784 481.624 302.921 591.866 135.433 554.536C-32.0551 517.206 -135.744 346.44 -99.7616 188.877C-63.7791 31.3151 101.167 -66.1525 268.655 -28.8224Z" fill="#7357C4" fill-opacity="0.42"/>
</g>
<path fill-rule="evenodd" clip-rule="evenodd" d="M80.9343 583.889C109.655 605.081 146.278 609.499 185.045 619.157C258.058 616.158 244.882 588.829 229.168 575.539C198.255 571.759 176.085 567.023 166.972 562.834C104.548 545.126 88.2309 458.662 303.342 377.142L322.751 334.018C194.259 377.872 -40.1557 494.54 80.9343 583.889Z" fill="#F8BC3B"/>
<path d="M675.732 572.743L711.288 503.072C575.748 590.4 343.088 589.466 229.168 575.539C244.882 588.829 258.058 616.158 185.045 619.157C318.231 652.339 501.918 623.351 675.732 572.743Z" fill="#F88A3B"/>
<path fill-rule="evenodd" clip-rule="evenodd" d="M209.963 573.298C213.511 574.395 217.104 575.439 220.741 576.43C275.561 584.102 271.928 561.665 263.26 549.487C221.987 538.225 204.871 501.907 296.299 444.366L301.269 405.226C196.833 458.329 95.5921 537.936 209.963 573.298Z" fill="#F7C968"/>
<path d="M782.272 492.49L794.181 431.959C658.376 535.359 334.086 560.195 287.776 553.127C279.141 552.765 270.797 551.544 263.26 549.487C271.928 561.665 275.561 584.102 220.741 576.43C368.527 616.7 588.889 570.275 782.272 492.49Z" fill="#E3B34C"/>
</svg>
