<svg width="114" height="117" viewBox="0 0 114 117" fill="none" xmlns="http://www.w3.org/2000/svg">
<ellipse cx="57" cy="58.5" rx="57" ry="58.5" fill="#7291FF"/>
<g clip-path="url(#clip0_590_1923)">
<path d="M71 48.6656C71 49.193 70.8436 49.7086 70.5506 50.1471C70.2576 50.5857 69.8411 50.9275 69.3538 51.1293C68.8666 51.3311 68.3304 51.3839 67.8131 51.281C67.2958 51.1782 66.8207 50.9242 66.4477 50.5512C66.0748 50.1783 65.8208 49.7031 65.7179 49.1859C65.615 48.6686 65.6678 48.1324 65.8697 47.6451C66.0715 47.1579 66.4133 46.7414 66.8518 46.4484C67.2903 46.1553 67.8059 45.999 68.3333 45.999C69.0406 45.999 69.7189 46.2799 70.219 46.78C70.7191 47.2801 71 47.9584 71 48.6656ZM60.3333 53.999C59.8059 53.999 59.2903 54.1553 58.8518 54.4484C58.4133 54.7414 58.0715 55.1579 57.8697 55.6451C57.6678 56.1324 57.615 56.6686 57.7179 57.1859C57.8208 57.7031 58.0748 58.1783 58.4477 58.5512C58.8207 58.9242 59.2958 59.1782 59.8131 59.281C60.3304 59.3839 60.8666 59.3311 61.3538 59.1293C61.8411 58.9275 62.2576 58.5857 62.5506 58.1471C62.8436 57.7086 63 57.193 63 56.6656C63 55.9584 62.719 55.2801 62.219 54.78C61.7189 54.2799 61.0406 53.999 60.3333 53.999ZM52.3333 61.999C51.8059 61.999 51.2903 62.1553 50.8518 62.4484C50.4133 62.7414 50.0715 63.1579 49.8697 63.6451C49.6678 64.1324 49.615 64.6686 49.7179 65.1859C49.8208 65.7031 50.0748 66.1783 50.4477 66.5512C50.8207 66.9242 51.2958 67.1782 51.8131 67.281C52.3304 67.3839 52.8666 67.3311 53.3538 67.1293C53.8411 66.9275 54.2576 66.5857 54.5506 66.1471C54.8436 65.7086 55 65.193 55 64.6656C55 63.9584 54.719 63.2801 54.219 62.78C53.7189 62.2799 53.0406 61.999 52.3333 61.999ZM86.6427 37.887L86.4427 38.4496C82.4373 49.5643 78.5947 60.1323 71 69.519V69.999C70.9953 74.0835 70.1392 78.1222 68.4863 81.8574C66.8333 85.5925 64.4199 88.9421 61.4 91.6923C59.8013 93.1672 57.7084 93.9901 55.5333 93.999C53.2696 93.9919 51.1007 93.0884 49.5015 91.4862C47.9023 89.8839 47.0028 87.7134 47 85.4496V82.3803C45.0323 81.7457 43.2411 80.6578 41.7707 79.2043L41.6667 79.103L35.552 85.2176C35.0491 85.7034 34.3755 85.9722 33.6763 85.9661C32.9771 85.96 32.3082 85.6796 31.8138 85.1851C31.3194 84.6907 31.0389 84.0219 31.0329 83.3227C31.0268 82.6235 31.2956 81.9499 31.7813 81.447L37.896 75.3323L37.792 75.231C36.3375 73.7589 35.2472 71.9672 34.608 69.999H31.968C29.5907 69.9968 27.3112 69.0517 25.6299 67.3709C23.9487 65.6901 23.0028 63.411 23 61.0336C23.0047 58.7118 23.9 56.4802 25.5013 54.799C28.2893 51.9356 31.6368 49.6767 35.3354 48.1628C39.0339 46.6489 43.0045 45.9123 47 45.999H47.48C56.8667 38.407 67.4267 34.5643 78.536 30.5616L79.112 30.3563C80.1632 29.9698 81.303 29.8924 82.3968 30.133C83.4907 30.3736 84.4927 30.9223 85.2847 31.7143C86.0766 32.5062 86.6253 33.5083 86.866 34.6021C87.1066 35.6959 87.0291 36.8358 86.6427 37.887ZM31.968 64.6656H33.9333C34.1337 62.3161 34.9535 60.0616 36.3093 58.1323C37.7975 55.9912 39.4081 53.938 41.1333 51.983C36.6601 52.9089 32.5705 55.1637 29.4 58.4523C28.7255 59.1434 28.3434 60.068 28.3333 61.0336C28.3347 61.9969 28.7182 62.9203 29.3996 63.6012C30.081 64.2821 31.0047 64.6649 31.968 64.6656ZM64.8667 76.0043C62.954 77.6786 60.949 79.2446 58.8613 80.695C56.9304 82.0376 54.6777 82.8437 52.3333 83.031V85.4496C52.3347 86.3026 52.6744 87.1202 53.2778 87.7231C53.8812 88.3259 54.699 88.6649 55.552 88.6656C56.3976 88.6531 57.208 88.325 57.824 87.7456C61.2618 84.5987 63.709 80.5189 64.8667 76.0043ZM81.4987 35.5003C81.4276 35.4212 81.3336 35.3664 81.2299 35.3435C81.1261 35.3205 81.0177 35.3306 80.92 35.3723L80.3467 35.5803C67.4293 40.2336 56.2747 44.255 46.6693 53.8576C44.466 56.1298 42.4605 58.5858 40.6747 61.199C39.5884 62.7407 39.0818 64.6167 39.2443 66.4957C39.4068 68.3747 40.2279 70.1358 41.5627 71.4683L45.5413 75.4416C46.8731 76.7754 48.6331 77.5962 50.5109 77.7591C52.3887 77.9221 54.2637 77.4168 55.8053 76.3323C58.417 74.5468 60.8713 72.5412 63.1413 70.3376C72.7413 60.7376 76.768 49.5723 81.424 36.6496L81.6267 36.087C81.6698 35.9881 81.6807 35.8782 81.6577 35.7729C81.6347 35.6675 81.5791 35.5721 81.4987 35.5003Z" fill="#090217"/>
</g>
<defs>
<clipPath id="clip0_590_1923">
<rect width="64" height="64" fill="white" transform="translate(23 30)"/>
</clipPath>
</defs>
</svg>
