<svg width="1364" height="833" viewBox="0 0 1364 833" fill="none" xmlns="http://www.w3.org/2000/svg">
<circle cx="72" cy="6" r="6" fill="#5D939E"/>
<circle cx="128" cy="136" r="6" fill="#5D939E"/>
<circle cx="242" cy="445" r="6" fill="#5D939E"/>
<circle cx="952" cy="433" r="6" fill="#5D939E"/>
<circle cx="220" cy="678" r="6" fill="#5D939E"/>
<circle cx="1358" cy="266" r="6" fill="#5D939E"/>
<circle cx="1206" cy="212" r="10" fill="#5D939E" fill-opacity="0.4"/>
<circle cx="1206" cy="212" r="6" fill="#52B3C9" fill-opacity="0.4"/>
<circle cx="573" cy="31" r="10" fill="#5D939E" fill-opacity="0.4"/>
<circle cx="573" cy="31" r="6" fill="#52B3C9" fill-opacity="0.4"/>
<circle cx="10" cy="522" r="10" fill="#5D939E" fill-opacity="0.4"/>
<circle cx="10" cy="522" r="6" fill="#52B3C9" fill-opacity="0.4"/>
<circle cx="424" cy="300" r="10" fill="#5D939E" fill-opacity="0.4"/>
<circle cx="424" cy="300" r="6" fill="#52B3C9" fill-opacity="0.4"/>
<circle cx="197.5" cy="41.5" r="2.5" fill="#5D939E"/>
<circle cx="399.5" cy="605.5" r="2.5" fill="#5D939E"/>
<circle cx="399.5" cy="605.5" r="2.5" fill="#5D939E"/>
<circle cx="353.5" cy="547.5" r="2.5" fill="#5D939E"/>
<circle cx="673.5" cy="312.5" r="2.5" fill="#5D939E"/>
<circle cx="819.5" cy="735.5" r="2.5" fill="#5D939E"/>
<circle cx="731.5" cy="36.5" r="2.5" fill="#5D939E"/>
<circle cx="570.5" cy="496.5" r="2.5" fill="#5D939E"/>
<circle cx="884.5" cy="578.5" r="2.5" fill="#5D939E"/>
<circle cx="1140.5" cy="408.5" r="2.5" fill="#5D939E"/>
<circle cx="1022.5" cy="583.5" r="2.5" fill="#5D939E"/>
<circle cx="751.5" cy="825.5" r="2.5" fill="#5D939E"/>
<circle cx="213.5" cy="786.5" r="2.5" fill="#5D939E"/>
<circle cx="213.5" cy="786.5" r="2.5" fill="#5D939E"/>
<circle cx="802.5" cy="307.5" r="2.5" fill="#5D939E"/>
<circle cx="1257.5" cy="34.5" r="2.5" fill="#5D939E"/>
<circle cx="50.5" cy="201.5" r="2.5" fill="#5D939E"/>
<circle cx="34.5" cy="735.5" r="2.5" fill="#5D939E"/>
<path d="M560.229 777.009C560.704 775.885 562.296 775.885 562.771 777.009L564.697 781.569C564.837 781.9 565.1 782.163 565.431 782.303L569.991 784.229C571.115 784.704 571.115 786.296 569.991 786.771L565.431 788.697C565.1 788.837 564.837 789.1 564.697 789.431L562.771 793.991C562.296 795.115 560.704 795.115 560.229 793.991L558.303 789.431C558.163 789.1 557.9 788.837 557.569 788.697L553.009 786.771C551.885 786.296 551.885 784.704 553.009 784.229L557.569 782.303C557.9 782.163 558.163 781.9 558.303 781.569L560.229 777.009Z" fill="#57A3C5"/>
<path d="M982.229 122.009C982.704 120.885 984.296 120.885 984.771 122.009L986.697 126.569C986.837 126.9 987.1 127.163 987.431 127.303L991.991 129.229C993.115 129.704 993.115 131.296 991.991 131.771L987.431 133.697C987.1 133.837 986.837 134.1 986.697 134.431L984.771 138.991C984.296 140.115 982.704 140.115 982.229 138.991L980.303 134.431C980.163 134.1 979.9 133.837 979.569 133.697L975.009 131.771C973.885 131.296 973.885 129.704 975.009 129.229L979.569 127.303C979.9 127.163 980.163 126.9 980.303 126.569L982.229 122.009Z" fill="#57A3C5"/>
<path d="M792.229 525.009C792.704 523.885 794.296 523.885 794.771 525.009L796.697 529.569C796.837 529.9 797.1 530.163 797.431 530.303L801.991 532.229C803.115 532.704 803.115 534.296 801.991 534.771L797.431 536.697C797.1 536.837 796.837 537.1 796.697 537.431L794.771 541.991C794.296 543.115 792.704 543.115 792.229 541.991L790.303 537.431C790.163 537.1 789.9 536.837 789.569 536.697L785.009 534.771C783.885 534.296 783.885 532.704 785.009 532.229L789.569 530.303C789.9 530.163 790.163 529.9 790.303 529.569L792.229 525.009Z" fill="#57A3C5"/>
<path d="M428.229 139.009C428.704 137.885 430.296 137.885 430.771 139.009L432.697 143.569C432.837 143.9 433.1 144.163 433.431 144.303L437.991 146.229C439.115 146.704 439.115 148.296 437.991 148.771L433.431 150.697C433.1 150.837 432.837 151.1 432.697 151.431L430.771 155.991C430.296 157.115 428.704 157.115 428.229 155.991L426.303 151.431C426.163 151.1 425.9 150.837 425.569 150.697L421.009 148.771C419.885 148.296 419.885 146.704 421.009 146.229L425.569 144.303C425.9 144.163 426.163 143.9 426.303 143.569L428.229 139.009Z" fill="#57A3C5"/>
<path d="M1116.23 40.0092C1116.7 38.8852 1118.3 38.8852 1118.77 40.0092L1120.7 44.5685C1120.84 44.8995 1121.1 45.1629 1121.43 45.3027L1125.99 47.2288C1127.11 47.7036 1127.11 49.2964 1125.99 49.7712L1121.43 51.6973C1121.1 51.8371 1120.84 52.1005 1120.7 52.4315L1118.77 56.9908C1118.3 58.1148 1116.7 58.1148 1116.23 56.9908L1114.3 52.4315C1114.16 52.1005 1113.9 51.8371 1113.57 51.6973L1109.01 49.7712C1107.89 49.2964 1107.89 47.7036 1109.01 47.2288L1113.57 45.3027C1113.9 45.1629 1114.16 44.8995 1114.3 44.5685L1116.23 40.0092Z" fill="#57A3C5"/>
<path d="M60.6612 810.646C60.783 809.432 62.3047 808.962 63.0903 809.896L66.2769 813.683C66.5082 813.958 66.8376 814.132 67.1951 814.167L72.1199 814.661C73.334 814.783 73.8043 816.305 72.8707 817.09L69.0835 820.277C68.8086 820.508 68.6347 820.838 68.5989 821.195L68.1051 826.12C67.9834 827.334 66.4616 827.804 65.6761 826.871L62.4895 823.084C62.2582 822.809 61.9287 822.635 61.5712 822.599L56.6465 822.105C55.4324 821.983 54.962 820.462 55.8957 819.676L59.6828 816.489C59.9578 816.258 60.1316 815.929 60.1675 815.571L60.6612 810.646Z" fill="#57A3C5"/>
</svg>
