<svg width="86" height="90" viewBox="0 0 86 90" fill="none" xmlns="http://www.w3.org/2000/svg">
<ellipse cx="3.01078" cy="2.99464" rx="3.01078" ry="2.99464" transform="matrix(-1 0 0 1 11.666 35.6335)" fill="white"/>
<path fill-rule="evenodd" clip-rule="evenodd" d="M71.0006 55.473C80.7856 20.6603 49.677 3.44112 29.668 15.4876C23.521 10.8709 10.537 1.56945 6.77341 6.43576C3.00986 11.3021 13.0431 20.0908 18.4403 24.0293L19.441 24.7521L18.1943 26.7263L16.9476 28.7004C8.15754 21.9918 -2.73302 12.8801 2.25722 4.93841C7.96198 -4.14036 23.3326 4.56407 30.1069 10.179C60.2148 -2.17386 86.4936 25.6379 75.1405 58.6469L71.0006 55.473ZM65.9054 64.2618L67.3028 65.2736C74.1395 70.4462 82.733 78.1506 79.3459 82.8671C76.3351 87.0596 61.72 78.6135 56.3887 73.4409C43.342 78.2669 16.0314 79.0272 10.9131 44.6854H5.95811C6.83626 60.1578 17.6876 88.0397 55.6985 79.0558C61.7201 84.2964 76.8241 93.325 82.733 86.6104C90.6988 77.5585 75.6449 65.2736 68.8081 60.4073L68.6485 60.292L65.9054 64.2618Z" fill="white"/>
<path d="M56.8696 57.719L59.5601 53.7279M29.668 15.4876C49.677 3.44112 80.7856 20.6603 71.0006 55.473L75.1405 58.6469C86.4936 25.6379 60.2148 -2.17386 30.1069 10.179C23.3326 4.56407 7.96198 -4.14036 2.25722 4.93841C-2.73302 12.8801 8.15754 21.9918 16.9476 28.7004L18.1943 26.7263L19.441 24.7521L18.4403 24.0293C13.0431 20.0908 3.00986 11.3021 6.77341 6.43576C10.537 1.56945 23.521 10.8709 29.668 15.4876ZM67.3028 65.2736C74.1395 70.4462 82.733 78.1506 79.3459 82.8671C76.3351 87.0596 61.72 78.6135 56.3887 73.4409C43.342 78.2669 16.0314 79.0272 10.9131 44.6854H5.95811C6.83626 60.1578 17.6876 88.0397 55.6985 79.0558C61.7201 84.2964 76.8241 93.325 82.733 86.6104C90.6988 77.5585 75.6449 65.2736 68.8081 60.4073L68.6485 60.292L65.9054 64.2618L67.3028 65.2736Z" stroke="white"/>
<path d="M56.4513 22.9063C72.6341 35.6335 66.989 54.7244 60.9675 61.088L57.204 57.719C57.8062 56.8206 59.0856 54.7244 59.8383 53.6014C61.72 51.3554 66.6125 35.6335 52.6877 26.6496C41.6412 19.5228 31.6124 25.5266 27.8489 30.0186C26.6446 31.5159 25.3398 33.8867 24.8379 34.8849C24.8379 34.8849 18.8166 47.6121 27.8487 58.0933C34.454 65.7584 44.4047 65.6411 48.7894 63.779L52.6879 67.8259C49.3008 69.6976 35.7522 74.1896 23.709 61.088C14.3438 50.8997 17.9384 37.1308 20.6982 31.8902C20.6624 31.9587 22.2037 29.2699 23.709 27.3982C36.0532 13.6229 50.6806 18.6639 56.4513 22.9063Z" fill="#F8BC3B"/>
<path d="M48.7894 63.779L52.6879 67.8259C49.3008 69.6976 35.7522 74.1896 23.709 61.088C14.3438 50.8997 17.9384 37.1308 20.6982 31.8902C20.6624 31.9587 22.2037 29.2699 23.709 27.3982C36.0532 13.6229 50.6806 18.6639 56.4513 22.9063C72.6341 35.6335 66.989 54.7244 60.9675 61.088L57.204 57.719C57.8062 56.8206 59.0856 54.7244 59.8383 53.6014C61.72 51.3554 66.6125 35.6335 52.6877 26.6496C41.6412 19.5228 31.6124 25.5266 27.8489 30.0186C26.6446 31.5159 25.3398 33.8867 24.8379 34.8849C24.8379 34.8849 18.8166 47.6121 27.8487 58.0933C34.454 65.7584 44.4047 65.6411 48.7894 63.779ZM48.7894 63.779C48.5273 63.9355 49.1177 63.6396 48.7894 63.779Z" stroke="#F8BC3B" stroke-width="0.5"/>
<path d="M20.6984 31.8902C21.4511 30.3928 22.5801 28.5212 23.7091 27.3982L63.9783 56.596C62.8493 58.4676 61.7202 60.3393 60.9675 61.0879L20.6984 31.8902Z" fill="#F8BC3B" stroke="#F8BC3B" stroke-width="0.5"/>
</svg>
